<svg width="70" height="70" viewBox="0 0 70 70" fill="none" xmlns="http://www.w3.org/2000/svg">
<path fill-rule="evenodd" clip-rule="evenodd" d="M15.9889 44.3501C16.5915 41.7652 16.9233 37.0161 16.2072 35.393C16.0762 35.0924 15.9278 34.8319 15.7706 34.5914C13.5001 34.7818 11.448 35.2527 10.4175 36.2947C9.73638 36.976 9.54427 37.8477 9.83244 38.9498C10.3302 40.8634 12.4697 42.717 15.9976 44.3501H15.9889ZM4.26105 14.7034C4.26105 14.7034 4.26105 14.7535 4.26105 14.7735C4.36584 16.7273 8.83692 19.2421 11.9632 19.6328C13.5263 19.8232 15.0807 19.8733 16.6177 19.8532C14.7052 16.0159 11.7099 11.6275 7.70169 12.4791C6.12109 12.8098 4.26105 13.471 4.26105 14.7034ZM9.00284 54.1488C9.00284 54.229 9.01158 54.3092 9.03777 54.3893C9.16003 54.74 9.58793 54.9905 10.3302 55.1608C13.6486 55.8521 16.9233 52.0448 20.2766 46.5944C18.8008 46.1235 17.3774 45.6025 16.0762 45.0314C16.0326 45.1917 15.9889 45.342 15.9365 45.4622C15.43 46.8849 13.7621 48.5181 12.1553 50.0811C10.6009 51.604 8.99411 53.167 8.99411 54.1388L9.00284 54.1488ZM15.8405 34.1305C17.5782 34.0103 19.482 34.0504 21.3682 34.1506C20.9578 30.9845 20.2068 27.8185 18.7921 24.7025C18.6611 24.412 18.5039 24.0412 18.3205 23.6004C15.823 25.7946 13.3429 27.8586 9.63159 29.4215C8.53128 29.8824 7.32619 30.2732 6.15602 30.6539C3.58864 31.4855 1.16098 32.267 0.619557 33.5995C0.383777 34.1907 0.523498 34.872 1.06492 35.6835C2.35734 37.4269 4.93346 36.1544 7.65803 34.8119C10.0071 33.6496 12.4348 32.4573 14.321 33.0585C14.9235 33.2489 15.43 33.5995 15.8405 34.1305ZM18.5214 22.8089C18.5214 22.8089 18.5738 22.7588 18.6 22.7388C19.5693 21.8671 20.5735 20.9654 21.6564 20.0837C21.2023 20.1037 20.7482 20.1238 20.2941 20.1438C19.3422 20.1839 18.3816 20.234 17.4036 20.254C17.8402 21.1858 18.207 22.0575 18.5214 22.8089ZM20.6085 46.1736C21.0276 45.4923 21.4381 44.7909 21.8572 44.0696C21.8572 40.9436 21.8136 37.7675 21.4381 34.5914C19.84 34.5013 17.9363 34.4411 16.1199 34.5614C16.2509 34.7718 16.3644 34.9922 16.4779 35.2427C17.2901 37.0862 16.8534 42.0357 16.2509 44.5705C17.5346 45.1416 18.9842 45.6826 20.5997 46.1836L20.6085 46.1736ZM20.8704 46.384C21.1062 46.4541 21.2896 46.5243 21.5341 46.6044C21.5603 46.6044 21.5603 46.6144 21.5603 46.6244V45.0414C21.5603 45.5023 21.1237 45.9532 20.8704 46.394V46.384ZM21.3769 14.483C21.3769 13.5612 21.5254 12.6695 21.8834 11.8279C22.3986 10.6156 23.3156 9.60363 24.6255 8.80209C24.0142 8.34121 23.3942 7.87031 22.7567 7.40943C20.9316 6.0869 18.7572 5.54586 16.6351 5.88652C13.7359 6.35742 10.9677 8.43138 8.60988 11.898C12.5046 11.7878 15.3602 16.1261 17.1766 19.8532C18.2157 19.8332 19.2374 19.7831 20.2504 19.743C20.9141 19.713 21.569 19.6829 22.224 19.6629C22.2677 19.6328 22.3026 19.6028 22.3462 19.5727C22.3899 19.5326 22.4423 19.5026 22.486 19.4625C21.8572 17.8795 21.3769 16.1461 21.3769 14.493V14.483ZM22.2589 43.2179C23.2632 41.4245 24.2761 39.5409 25.2979 37.6272C25.7345 36.8157 26.1624 36.0041 26.599 35.1926C25.7694 34.9922 24.9049 34.8319 23.9792 34.7517C23.4204 34.7016 22.6868 34.6415 21.8485 34.5914C22.1803 37.477 22.2415 40.3625 22.2502 43.2079L22.2589 43.2179ZM26.8872 34.8319C27.5421 33.6196 28.2058 32.4173 28.8782 31.235C27.2889 28.5699 25.8655 26.0351 24.6167 23.7908C24.1015 22.859 23.3767 21.5565 22.7479 20.0837C22.6344 20.0837 22.5296 20.0837 22.4161 20.0937C21.1673 21.0656 20.0321 22.0775 18.9231 23.0494C18.8445 23.1195 18.7659 23.1896 18.6873 23.2598C18.7048 23.3098 18.731 23.3599 18.7484 23.41C18.9318 23.8609 19.0977 24.2416 19.2287 24.5422C20.6696 27.7383 21.4293 30.9645 21.8398 34.1907C22.5995 34.2408 23.3418 34.2909 24.0753 34.361C25.0708 34.4411 25.9965 34.6115 26.8785 34.8319H26.8872ZM27.2976 34.9321C28.5988 35.2928 29.8126 35.7537 31.009 36.2145C31.3845 36.3548 31.76 36.5051 32.1442 36.6454C31.0701 34.9521 30.0484 33.2789 29.0878 31.6558C28.4853 32.7379 27.8827 33.84 27.2976 34.9321ZM23.0623 19.6428C26.4593 19.5627 29.7602 19.733 33.1223 21.0856C33.5065 21.2359 33.8645 21.3962 34.2138 21.5565C33.6375 19.4625 32.6856 17.7793 31.1225 17.108C29.1839 16.2664 26.468 17.108 23.0449 19.6028C23.0449 19.6128 23.0536 19.6228 23.0623 19.6428ZM29.114 30.7441C30.8256 27.7584 32.5808 24.933 34.406 22.5284C34.3798 22.4081 34.3536 22.2779 34.3274 22.1576C33.882 21.9272 33.4017 21.7168 32.8952 21.5064C29.6816 20.2039 26.5117 20.0135 23.237 20.0837C23.8395 21.4763 24.5294 22.6987 25.0272 23.6004C26.2322 25.7645 27.5945 28.1792 29.114 30.7341V30.7441ZM34.3798 39.3806C34.3798 38.8897 34.4933 38.4087 34.5107 37.9478C34.0566 37.8276 33.5589 37.6974 33.131 37.5571C33.5589 38.1983 34.3798 38.8396 34.3798 39.4808C34.3798 39.4507 34.3798 39.4207 34.3798 39.3806ZM34.6417 37.4369C34.6679 36.6955 34.7116 36.0041 34.7553 35.3729L34.8251 34.1105C34.9648 31.7259 35.2443 27.047 34.5544 23.1495C32.7555 25.5441 31.0264 28.3295 29.3672 31.225C30.4763 33.0685 31.6639 34.9822 32.9214 36.9059C33.4803 37.0962 34.0567 37.2866 34.6417 37.4469V37.4369ZM25.4114 8.89227C25.4725 8.93234 25.5249 8.98244 25.586 9.02251C29.8301 12.2787 33.1834 14.8537 36.5629 13.2205C37.7243 12.5693 38.0649 11.7277 37.5235 10.7759C36.3271 8.68186 31.0614 6.71811 26.8173 8.27108C26.3108 8.45142 25.8393 8.66182 25.4114 8.89227ZM37.7767 49.1192C35.2705 47.3759 34.6854 43.769 34.5893 40.3224C33.8995 39.3205 33.2707 38.3085 32.6158 37.3066C32.0307 37.1062 31.4805 36.8858 30.9129 36.6754C29.7078 36.2145 28.4853 35.7537 27.1579 35.403C26.7038 36.2346 25.9266 37.0762 25.4812 37.8978C24.3023 40.0719 23.3418 42.0958 21.9969 44.3701V45.1617C21.9969 45.6726 21.9969 46.2537 21.9969 46.7647C27.2365 48.2275 33.62 49.1693 37.7767 49.1292V49.1192ZM30.1794 63.0859C30.1794 61.6031 30.5985 59.9299 31.4281 58.1164C32.869 54.9905 35.3141 52.1851 38.0649 49.51C34.2313 49.5701 27.9788 48.7686 22.2502 47.1955C22.2677 52.3554 22.4685 57.6355 24.1976 62.7353C25.1843 65.6408 27.0182 67.3742 29.6642 67.8951C30.5461 68.0655 31.498 68.1055 32.4761 68.0254C30.9478 66.8031 30.1794 65.1198 30.1794 63.096V63.0859ZM38.6063 49.009C39.1739 48.478 39.759 47.947 40.3441 47.416C39.043 46.1035 37.8029 44.7709 36.8162 43.4384C36.2311 42.6569 35.6634 41.8553 35.1046 41.0638C35.2792 44.2299 36.0215 47.3859 38.3531 48.8587C38.4404 48.9088 38.519 48.9589 38.6063 49.009ZM39.0604 49.2194C40.0559 49.6402 41.2436 49.7705 42.6233 49.6402C42.5535 49.5701 42.4836 49.5 42.4137 49.4398C41.8374 48.8888 41.261 48.3277 40.6847 47.7666C40.1345 48.2476 39.6018 48.7385 39.0692 49.2294L39.0604 49.2194ZM35.0958 37.527C35.8206 37.7074 36.5716 37.8577 37.3663 37.9378C39.663 38.1883 41.9684 37.5972 43.907 36.5652C43.6712 36.3748 43.4442 36.1845 43.2084 35.9941L42.2391 35.2126C42.0208 35.0323 41.785 34.8519 41.5492 34.6616C38.9469 32.5976 35.384 29.7622 38.0562 26.8767C38.388 26.516 38.7897 26.2054 39.2351 25.9549C38.126 24.6524 36.7987 23.4601 35.0172 22.4482C34.9823 22.4983 34.9474 22.5384 34.9124 22.5885C35.7246 26.6362 35.4277 31.5857 35.2879 34.0805L35.2181 35.3429C35.1832 36.0041 35.1395 36.7355 35.1046 37.517L35.0958 37.527ZM44.4746 36.4149C45.0073 36.1043 45.5138 35.7637 45.9766 35.403C45.5749 34.9722 45.2169 34.5614 44.9113 34.1606C43.9681 32.9483 43.1735 31.6859 42.405 30.4635C41.5317 29.0709 40.6672 27.7083 39.6193 26.4358C39.1914 26.6663 38.8159 26.9468 38.5015 27.2774C36.1001 29.8323 39.3573 32.3872 41.9771 34.4311C42.2216 34.6215 42.4574 34.8018 42.6757 34.9822L43.6538 35.7637C43.9245 35.9841 44.1952 36.1945 44.4659 36.4149H44.4746ZM46.2735 35.0523C46.7538 34.6415 47.1905 34.1907 47.5572 33.7398C47.2429 33.6797 46.946 33.5995 46.6927 33.4993C44.3436 32.6277 42.929 30.2331 42.7456 28.3194C42.6583 27.3877 42.7805 26.4559 43.0862 25.5341C42.012 25.5141 40.9467 25.7144 40.0472 26.1152C41.0864 27.3977 41.9334 28.7603 42.8067 30.163C43.5664 31.3853 44.3524 32.6377 45.278 33.85C45.6011 34.2708 45.933 34.6816 46.2823 35.0623L46.2735 35.0523ZM40.7022 47.0753C41.296 46.5343 41.8985 45.9932 42.5011 45.4622C44.5183 43.6588 46.5006 41.8954 48.2471 40.0819C47.0507 39.0299 45.7496 37.9579 44.3873 36.8658C42.3177 37.9979 39.8376 38.6392 37.3663 38.3687C36.5891 38.2785 35.8381 38.1482 35.122 37.9679C35.1046 38.6592 35.0958 39.3806 35.1133 40.102C35.8119 41.1139 36.528 42.1258 37.2615 43.1278C38.2221 44.4403 39.4272 45.7628 40.7109 47.0653L40.7022 47.0753ZM47.7843 33.3491C48.1074 32.9082 48.3606 32.4473 48.5528 31.9965C49.4871 29.7722 48.7274 27.7884 46.422 26.4158C45.5575 25.9048 44.5358 25.6143 43.4966 25.5241C43.1822 26.4358 43.0512 27.3476 43.1385 28.2593C43.3132 30.0527 44.6231 32.287 46.8062 33.0986C47.1293 33.2188 47.4524 33.299 47.793 33.3491H47.7843ZM48.5615 39.8214C48.9283 39.4307 49.295 39.05 49.6356 38.6592C48.3257 37.7074 47.1817 36.7055 46.2386 35.7436C45.7933 36.0943 45.3042 36.4249 44.789 36.7255C46.1076 37.7675 47.3739 38.7995 48.5528 39.8315L48.5615 39.8214ZM43.1647 25.0933C44.2214 22.368 46.7626 19.6829 49.7317 17.118C49.557 16.9777 49.3736 16.8675 49.199 16.7673C47.1905 15.6752 45.2431 15.3947 43.2608 15.9157C40.4576 16.6471 37.8029 18.9816 35.2967 22.1376C37.148 23.1796 38.5277 24.412 39.6717 25.7545C40.7022 25.2736 41.9334 25.0532 43.1647 25.0933ZM33.1223 67.9452C39.2613 67.1437 46.5792 62.1942 49.9325 58.958C48.675 55.8421 45.8195 52.9065 42.9377 50.051C41.2698 50.2714 39.8464 50.1111 38.6762 49.5701C35.8556 52.2853 33.3231 55.1307 31.8648 58.2868C29.8999 62.5349 30.3278 65.9514 33.0699 67.9152C33.0873 67.9252 33.1048 67.9352 33.1135 67.9452H33.1223ZM33.7161 68.2358C37.1305 70.1996 42.9377 69.919 46.8412 67.5044C48.7187 66.3422 51.6266 63.7472 50.0897 59.3187C48.1511 61.1623 44.8851 63.6671 41.0253 65.6508C38.9906 66.6928 36.3533 67.795 33.7161 68.2358ZM43.1909 49.5701C44.1253 49.4298 45.1296 49.1593 46.2211 48.7686C48.2995 48.0271 50.3604 46.394 52.4999 44.5505C51.4607 43.1578 50.1159 41.7752 48.5615 40.3825C46.7888 42.2361 44.8065 44.0195 42.8416 45.7728C42.2391 46.3139 41.6278 46.8649 41.0253 47.416C41.5929 47.9971 42.178 48.5782 42.7543 49.1493C42.894 49.2895 43.0338 49.4298 43.1822 49.5701H43.1909ZM48.3694 33.4593C49.688 33.4993 51.0852 32.9984 52.4737 31.9764C53.6963 31.0747 54.2464 29.161 54.0456 26.5961C53.7574 23.0594 52.0807 19.222 50.1683 17.4687C47.2516 19.9835 44.7628 22.5885 43.7062 25.2135C44.7803 25.3137 45.8369 25.6343 46.7451 26.1653C49.2252 27.6281 50.0635 29.8423 49.0592 32.2169C48.8846 32.6277 48.6488 33.0485 48.3694 33.4593ZM50.5263 17.0278C52.1593 18.5207 53.443 21.276 54.0892 23.9411C53.8534 21.9172 53.4867 19.7631 53.1286 17.639C52.9889 16.8274 52.8579 16.0159 52.7269 15.2043C51.9847 15.8055 51.2424 16.4167 50.5351 17.0278H50.5263ZM49.8277 38.3386C51.9323 35.8739 53.5129 33.2889 54.0805 30.4034C53.7836 31.225 53.3295 31.8662 52.7357 32.3071C50.9106 33.6596 49.3125 33.9702 48.0725 33.87C47.6533 34.4111 47.1468 34.9421 46.5705 35.433C47.6009 36.5552 48.6925 37.517 49.8277 38.3486V38.3386ZM50.3167 58.5372C55.7047 53.1369 55.5738 48.9289 52.7531 44.9212C50.5874 46.7647 48.5004 48.3878 46.3521 49.1493C45.3392 49.51 44.3873 49.7604 43.5053 49.9208C46.2823 52.666 49.0156 55.5014 50.3167 58.5272V58.5372ZM52.7881 44.2399C53.1199 43.9493 53.4517 43.6488 53.7836 43.3582C54.3425 42.8673 54.9013 42.3663 55.469 41.8754C53.4517 41.0738 51.5742 39.9817 49.9325 38.7995C49.5832 39.2103 49.2164 39.6211 48.8409 40.0218C50.3779 41.4245 51.7314 42.8172 52.7793 44.2499L52.7881 44.2399ZM53.0238 14.4128C53.8272 13.7816 54.6306 13.1604 55.4166 12.5493C59.9488 9.04255 64.2278 5.71619 63.8435 3.46188C63.7038 2.61025 62.9179 1.91893 61.4595 1.34783C58.1586 0.215667 55.827 0.17559 54.3512 1.2276C51.6354 3.15128 52.0982 8.59169 53.0151 14.4228L53.0238 14.4128ZM56.4557 41.8052C59.5733 42.8272 62.455 43.0476 64.3849 42.7771C67.5549 42.3262 69.7468 40.3925 69.5896 38.9798C69.4673 37.8677 67.9391 37.2665 65.3892 37.3267C62.2629 37.4068 59.3026 39.4307 56.447 41.8052H56.4557ZM70 39.06C70 40.643 67.7819 42.6569 64.3937 43.1478C61.5032 43.5686 58.6214 43.0877 55.9755 42.1158C55.3642 42.6368 54.7442 43.1779 54.1416 43.7089C53.7836 44.0295 53.4255 44.3401 53.0675 44.6507C56.0104 48.8287 56.2374 53.3072 50.5525 58.9881C50.5351 59.0081 50.5176 59.0282 50.5001 59.0482C50.5089 59.0883 50.5263 59.1184 50.5351 59.1584C51.8013 62.6251 50.5613 65.8212 47.1381 67.9152C42.9115 70.5101 36.528 70.7005 33.0262 68.3861C31.856 68.5264 30.6946 68.5163 29.5943 68.2959C26.7649 67.7449 24.8088 65.9113 23.7697 62.8455C22.0144 57.6455 21.8223 52.2953 21.8048 47.0653C21.4555 46.9651 21.1149 46.8649 20.7744 46.7547C17.3075 52.4055 13.8756 56.3631 10.2603 55.6116C9.33468 55.4113 8.79326 55.0606 8.61861 54.5496C8.21691 53.3874 9.9023 51.7342 11.8409 49.8306C13.4128 48.2876 15.0371 46.6946 15.5174 45.362C15.5698 45.2117 15.6221 45.0414 15.6745 44.8511C12.2863 43.2881 9.78005 41.3443 9.18623 39.06C8.87186 37.8276 9.0989 36.8057 9.8761 36.0142C10.9415 34.9321 12.9063 34.4011 15.2379 34.1806C14.9148 33.84 14.548 33.5995 14.1201 33.4593C12.4348 32.9182 10.1119 34.0704 7.85887 35.1826C5.06445 36.5652 2.16523 37.9979 0.628289 35.914C0.00827511 34.9722 -0.148912 34.1706 0.139264 33.4492C0.750545 31.9263 3.283 31.1148 5.95517 30.2431C7.1166 29.8724 8.31297 29.4817 9.38708 29.0208C13.1072 27.4578 15.5698 25.3638 18.0935 23.1395C17.7529 22.328 17.3337 21.3361 16.8272 20.2941C15.2117 20.3141 13.5613 20.274 11.9021 20.0636C8.86312 19.6829 3.91174 17.108 3.78949 14.7735C3.78949 14.7435 3.78949 14.7134 3.78949 14.6833C3.78949 13.8217 4.47936 12.6895 7.5969 12.0283C7.71915 11.9982 7.84141 11.9782 7.96367 11.9581C10.435 8.22098 13.3866 5.97669 16.5041 5.47573C18.7746 5.10502 21.0888 5.67611 23.0187 7.08882C23.6998 7.57976 24.3635 8.08071 25.0097 8.57165C25.4987 8.31115 26.0401 8.07069 26.6252 7.85027C31.2448 6.17707 36.6852 8.33119 37.9514 10.5454C38.6063 11.6776 38.1872 12.7697 36.7987 13.5412C33.1135 15.3146 29.472 12.5392 25.2542 9.32309C25.1581 9.25296 25.0621 9.1728 24.966 9.10267C23.6823 9.86412 22.7916 10.826 22.2938 11.9882C21.3682 14.1523 21.9271 16.8174 22.844 19.1619C26.3632 16.597 29.2101 15.7654 31.3059 16.6872C33.0873 17.4687 34.1352 19.4424 34.7291 21.847C34.7727 21.8671 34.8164 21.8971 34.86 21.9172C37.4362 18.6509 40.1607 16.2764 43.1298 15.4949C45.2256 14.9438 47.3651 15.2444 49.4697 16.3966C49.688 16.5169 49.8976 16.6571 50.0984 16.8074C50.9018 16.1261 51.7314 15.4448 52.561 14.7735C51.5917 8.69188 51.0765 2.96092 54.0194 0.856894C55.6436 -0.30533 58.1324 -0.285292 61.608 0.917009C63.241 1.56825 64.1055 2.36979 64.2801 3.3717C64.6993 5.89653 60.5339 9.12271 55.696 12.8799C54.8315 13.5512 53.9408 14.2425 53.0675 14.9438C53.216 15.8456 53.3644 16.7473 53.5216 17.649C54.1329 21.2559 54.7878 25.0031 54.7616 27.9688C54.7529 31.9464 52.8405 35.403 50.1246 38.6091C52.0109 39.9417 53.9757 40.9135 55.8707 41.5848C58.8397 39.09 61.9224 36.9359 65.2669 36.8457C69.2839 36.7355 69.8777 38.2384 69.9476 38.8796C69.9476 38.9397 69.9563 38.9999 69.9563 39.06H70Z" fill="white"/>
<path fill-rule="evenodd" clip-rule="evenodd" d="M27.99 38.17C27.99 38.01 27.88 37.9 27.77 37.9C27.66 37.9 27.66 37.96 27.55 38.06C27.55 38.23 27.61 38.28 27.72 38.28C27.89 38.28 27.99 38.22 27.99 38.17ZM31.35 41.22C31.35 41.22 31.2 41.27 31.16 41.32C31.06 41.32 31.11 41.48 31.06 41.58C31.21 41.58 31.21 41.89 31.4 41.89C31.5 41.89 31.64 41.79 31.74 41.73C31.74 41.36 31.64 41.21 31.35 41.21V41.22ZM32.3 27.3C32.3 27.3 32.24 27.41 32.19 27.41H32.35C32.35 27.41 32.35 27.3 32.29 27.3H32.3ZM37.44 20.62C37.44 20.45 36.89 20.45 36.83 20.45C36.83 20.49 36.8667 20.51 36.94 20.51C37.11 20.57 37.16 20.67 37.22 20.73C37.33 20.67 37.44 20.67 37.44 20.62ZM34.12 23.88C34.07 23.88 34.01 23.77 33.9 23.67C33.79 23.72 33.58 23.67 33.52 23.78C33.3 23.78 32.98 23.78 32.98 24.25C32.98 24.36 33.03 24.46 33.3 24.46C33.84 24.46 34 24.19 34.11 23.88H34.12ZM32.63 22.26C32.63 22.09 32.63 22.04 32.24 22.04C32.18 22.1 32.18 22.15 32.18 22.15C32.18 22.32 32.29 22.43 32.4 22.43C32.46 22.43 32.62 22.32 32.62 22.26H32.63ZM36.16 26.28C36.27 26.39 36.22 26.5 36.43 26.5C36.38 26.33 36.38 26.28 36.16 26.28ZM35.02 18.69C35.02 18.47 34.83 18.53 34.69 18.53C34.75 18.75 34.75 18.8 34.8 18.8C34.8 18.8 35.02 18.8 35.02 18.69ZM35.76 20.34L35.82 20.28C35.71 20.28 35.65 20.22 35.6 20.22C35.6 20.33 35.66 20.38 35.71 20.38C35.71 20.38 35.77 20.38 35.77 20.33L35.76 20.34ZM36.72 18.98C36.72 19 36.72 19.01 36.72 19.03V18.97V18.98ZM31.74 12.81C31.69 12.81 31.63 12.87 31.63 12.92C31.63 12.97 31.69 13.03 31.69 13.03C31.74 13.03 31.74 12.98 31.74 12.81ZM27.78 23.73C27.78 23.9 28 23.9 28.11 23.9C28.11 23.68 27.92 23.73 27.78 23.73ZM34.58 11.07V11.05V11.1C34.58 11.1 34.58 11.08 34.58 11.07ZM29.36 10.88C29.36 10.88 29.41 10.84 29.44 10.81C29.4 10.83 29.38 10.85 29.36 10.88ZM29.35 10.88C29.27 10.88 28.97 10.85 28.91 10.99C28.96 10.99 29.35 10.93 29.35 10.88ZM28.68 11C28.68 11.06 28.74 11.11 28.79 11.11C28.84 11.11 28.9 11.11 28.9 11.05C28.9 11.05 28.84 10.99 28.68 10.99V11ZM27.94 10.99V10.94C27.94 10.94 27.99 10.94 27.99 10.88C27.99 10.88 27.83 10.88 27.77 10.94C27.82 10.99 27.88 10.99 27.94 10.99ZM29.38 10.97L29.37 10.99C29.37 10.99 29.37 10.98 29.38 10.97ZM32.48 17.73C32.44 17.73 32.42 17.75 32.42 17.79C32.48 17.79 32.48 17.73 32.48 17.73ZM38.19 21.19C38.15 21.19 38.1133 21.21 38.08 21.25C38.08 21.36 38.08 21.42 38.19 21.42C38.25 21.42 38.3 21.42 38.36 21.36C38.31 21.25 38.25 21.19 38.19 21.19ZM36.72 19.03C36.71 18.32 36.34 18.13 35.77 18.13C35.66 18.13 35.51 18.18 35.4 18.28C35.14 18.43 35.03 18.83 35.03 19.13C34.92 19.08 34.98 19.03 34.82 19.03C34.77 19.03 34.61 19.08 34.61 19.08C34.61 19.08 34.56 19.03 34.5 19.03L34.45 19.08C34.45 19.08 34.77 19.18 34.77 19.28C34.88 19.28 34.98 19.23 35.03 19.23C35.5 19.68 35.66 19.83 35.77 19.83C36.43 19.83 36.7 19.08 36.72 19.03ZM28.01 34.72V34.83C28.01 35 27.98 35.1 28.12 35.1C28.12 35.05 28.06 34.72 28.01 34.72ZM31.28 29.85H31.17V30.01C31.2433 29.9767 31.28 29.9233 31.28 29.85ZM34.17 28.82C34 28.82 34.12 28.66 33.95 28.66C33.73 28.66 33.79 28.93 33.79 28.99C33.95 28.99 34.15 29.05 34.17 28.82ZM29.7 32.4C29.7 32.51 29.76 32.62 29.81 32.62L29.87 32.56C29.87 32.4867 29.8133 32.4333 29.7 32.4ZM31.85 29.5C31.79 29.5 31.74 29.5 31.74 29.56H31.96C31.96 29.5 31.9 29.5 31.85 29.5ZM29.58 34.03C29.58 33.81 29.53 33.48 29.3 33.48C29.25 33.54 29.25 33.59 29.25 33.65C29.25 33.81 29.36 34.09 29.53 34.09C29.5633 34.09 29.58 34.07 29.58 34.03ZM28.04 33.87C28.04 33.76 27.98 33.59 27.93 33.48C27.71 33.48 27.43 33.59 27.43 33.81C27.43 33.87 27.43 33.98 27.49 34.03C27.55 34.09 27.6 34.09 27.71 34.09C27.82 34.09 28.04 34.03 28.04 33.87ZM31.4 30.3C31.4 30.36 31.4 30.38 31.37 30.38L31.34 30.35C31.34 30.35 31.28 30.38 31.28 30.46C31.45 30.52 31.58 30.57 31.75 30.57C31.75 30.35 31.39 30.29 31.39 30.29L31.4 30.3ZM31.12 33.97C31.27 33.97 31.74 33.57 31.74 33.45C31.74 33.2 31.44 32.83 31.39 32.83C31.39 32.83 31.39 32.78 31.41 32.76C31.34 32.76 31.26 32.73 31.21 32.73C31.21 32.8 30.94 32.76 30.84 32.8C30.59 32.97 30.49 33.15 30.49 33.45C30.49 33.7 30.84 33.97 31.11 33.97H31.12ZM37.7 45.56H37.62C37.56 45.67 37.4 45.78 37.4 45.86C37.59 45.83 37.7 45.75 37.7 45.56ZM37.17 46.09C37.25 46.09 37.28 46.06 37.28 46.03C37.28 46 37.25 45.98 37.22 45.98C37.19 45.98 37.16 46.01 37.16 46.09H37.17ZM44.43 55.03C44.57 55.03 44.76 54.89 44.76 54.73C44.76 54.54 44.57 54.48 44.46 54.48C44.38 54.48 44.3 54.51 44.19 54.51C44.19 54.57 44.11 54.76 44.08 54.87C44.19 54.92 44.32 55.04 44.43 55.04V55.03ZM33.4 54.56C33.4 54.56 33.35 54.5 33.29 54.5C33.08 54.5 32.87 54.77 32.73 54.77C32.68 54.77 32.62 54.74 32.57 54.74C32.57 54.96 31.96 54.82 31.96 55.01C32.22 54.95 32.54 54.82 32.78 54.82C32.86 54.82 32.94 54.85 32.99 54.85H33.02C33.02 54.74 33.66 54.82 33.66 54.44C33.55 54.44 33.39 54.44 33.39 54.55L33.4 54.56ZM52.23 62.51C52.23 62.59 52.31 62.7 52.37 62.79C52.4 62.84 52.45 62.84 52.51 62.84C52.7 62.84 52.84 62.81 52.84 62.54C52.84 62.43 52.59 62.35 52.56 62.35C52.48 62.35 52.23 62.41 52.23 62.52V62.51ZM38.08 62.96C38.36 62.96 38.36 62.9 38.36 62.63C38.08 62.66 38.08 62.71 38.08 62.96ZM33.67 55.18C33.67 55.29 33.73 55.32 33.73 55.37C33.84 55.34 33.87 55.31 33.87 55.26C33.87 55.23 33.82 55.18 33.68 55.18H33.67ZM47.32 50.9C47.32 50.71 47.24 50.57 47.02 50.54C47.02 50.6 46.83 50.65 46.8 50.65C46.8 50.82 46.83 51.06 47.02 51.06C47.18 51.06 47.32 51.06 47.32 50.9ZM46.37 45.97C46 45.97 45.95 46.18 45.9 46.44C45.95 46.44 45.97 46.47 45.97 46.52C45.97 46.55 45.94 46.6 45.94 46.62C45.94 46.86 46.46 47.07 46.46 47.09C46.76 47.09 46.81 47.06 47.13 46.83V46.57C47.13 46.17 46.58 46.12 46.58 45.99C46.56 45.99 46.51 46.02 46.46 46.04C46.46 45.99 46.41 45.96 46.36 45.96L46.37 45.97ZM33.32 61.48C33.49 61.45 33.54 61.51 33.54 61.31V61.06C33.43 61.09 33.32 61.14 33.21 61.17C33.21 61.34 33.27 61.34 33.32 61.47V61.48ZM43.51 55.55C43.62 55.61 43.7 55.72 43.81 55.72C43.95 55.72 44.06 55.55 44.08 55.45C44 55.45 43.81 55.2 43.75 55.2C43.56 55.2 43.5 55.39 43.5 55.56L43.51 55.55ZM39.44 57.47C39.5 57.5 39.55 57.5 39.61 57.53C39.61 57.49 39.62 57.47 39.64 57.47C39.64 57.47 39.61 57.25 39.53 57.25C39.47 57.25 39.45 57.44 39.45 57.47H39.44ZM38.25 57.07C38.25 57.07 38.3 57.07 38.33 56.99C38.36 56.96 38.36 56.93 38.36 56.91C38.36 56.83 38.28 56.77 38.19 56.72C38.16 56.8 38.11 56.88 38.08 56.99C38.14 57.02 38.19 57.07 38.25 57.07ZM41.36 61.7C41.36 61.81 41.41 61.89 41.44 62C41.52 62.03 41.66 62.17 41.74 62.17C41.8 62.17 41.8 62.14 41.8 62C41.74 61.78 41.63 61.7 41.39 61.59C41.39 61.65 41.36 61.67 41.36 61.7ZM41.59 61.49C41.65 61.55 41.78 61.68 41.78 61.71C41.89 61.68 41.94 61.6 41.94 61.54C41.94 61.43 41.83 61.35 41.72 61.35C41.66 61.35 41.61 61.38 41.58 61.49H41.59ZM45.33 52.43C45.58 52.43 46.12 52.4 46.12 52.29C46.12 52.26 46.09 52.23 46.09 52.18C45.98 52.18 45.74 52.24 45.74 52.32C45.6 52.38 45.44 52.32 45.33 52.43ZM43.68 55.84C43.68 55.95 43.6 55.92 43.51 55.95V56.23C43.65 56.31 43.57 56.4 43.73 56.4C43.92 56.34 44.06 56.4 44.06 56.15C44.06 55.85 43.9 55.85 43.68 55.85V55.84ZM36.36 44.05C36.48 44.05 36.55 44 36.6 43.84C36.65 43.84 36.67 43.79 36.72 43.79C36.67 43.48 36.45 43.14 36.45 43.14C36.28 43.14 36.04 43.27 36.04 43.5C36.04 43.63 36.19 44.04 36.36 44.04V44.05ZM46.36 47.99C46.28 47.91 46.22 47.83 46.14 47.83C46.03 47.83 45.89 47.94 45.89 48.1C46 48.16 46.03 48.24 46.11 48.24C46.19 48.24 46.33 48.13 46.36 47.99ZM37.74 58.96C37.71 59.04 37.68 59.14 37.68 59.21C37.68 59.28 37.71 59.24 37.71 59.41C37.71 59.61 37.65 60.02 37.63 60.12C37.93 60.12 37.71 59.38 37.96 59.26C37.96 59.16 37.91 59.08 37.91 59.01C37.91 58.96 37.96 58.83 37.96 58.73C37.96 58.68 37.96 58.65 37.91 58.65C37.85 58.78 37.91 58.96 37.74 58.96ZM51.67 59.32C51.67 60.06 52.69 60.01 53.2 60.01C53.58 60.01 54.04 59.94 54.04 59.47C54.04 59.22 53.48 58.88 52.97 58.88C52.66 58.88 52.59 59 52.43 59C52.43 59.25 51.66 58.95 51.66 59.32H51.67ZM41.93 56.56C42.01 56.56 41.96 56.62 42.07 56.62C42.24 56.62 42.1 56.56 42.21 56.56C42.15 56.45 42.13 56.39 41.99 56.37C41.96 56.42 41.96 56.51 41.93 56.56ZM47.38 59.04C47.22 59.04 47.02 59.04 47.02 59.21C47.02 59.4 47.32 59.49 47.32 59.57C47.46 59.54 47.48 59.49 47.48 59.4C47.48 59.29 47.4 59.18 47.37 59.04H47.38ZM43.71 60.32L43.68 60.35H43.9C43.9 60.13 43.9 60.16 43.68 60.1C43.68 60.16 43.65 60.24 43.62 60.29C43.68 60.29 43.7 60.29 43.7 60.32H43.71ZM38.19 56.11V56.28H38.36C38.33 56.17 38.33 56.14 38.19 56.11ZM44.5 54.01C44.72 54.01 44.83 53.82 44.88 53.57C44.85 53.57 44.69 53.52 44.69 53.46C44.36 53.51 44.31 53.68 44.31 53.95C44.39 53.98 44.45 54 44.5 54V54.01ZM29.98 58.26C29.98 58.2 30.04 58.15 30.04 58.09C30.04 57.92 29.76 57.98 29.65 57.92C29.65 58.09 29.59 58.25 29.59 58.42C29.75 58.37 29.86 58.31 29.98 58.26ZM30.99 61.55C30.99 61.49 30.83 61.38 30.77 61.38C30.71 61.38 30.66 61.49 30.6 61.49C30.66 61.71 30.6 61.82 30.77 61.82C30.99 61.82 30.99 61.71 30.99 61.55ZM33.78 53.36C33.78 53.2 33.63 52.99 33.54 52.88C33.15 52.88 33.1 53.09 33.1 53.41C33.15 53.41 33.34 53.67 33.34 53.67C33.58 53.67 33.78 53.46 33.78 53.35V53.36ZM41.63 56.51C41.63 56.29 41.52 56.23 41.47 56.23C41.42 56.23 41.25 56.29 41.25 56.4C41.25 56.46 41.3 56.57 41.41 56.57V56.62C41.52 56.57 41.63 56.57 41.63 56.51ZM32.7 47.35C32.87 47.41 32.87 47.52 32.92 47.68C32.8467 47.7533 32.7567 47.79 32.65 47.79C32.65 47.63 32.65 47.52 32.7 47.35ZM27.54 56.25C27.54 56.1 27.49 55.94 27.49 55.84C27.49 55.53 27.65 55.48 27.85 55.48C28 55.48 28.06 55.58 28.21 55.58C28.31 55.58 28.37 55.53 28.47 55.53C28.93 55.53 28.73 55.84 29.35 56.24C29.4 56.19 29.45 56.04 29.45 55.99C29.45 55.94 29.45 55.89 29.4 55.89C29.4 55.89 29.45 55.84 29.45 55.79C29.45 55.69 29.4 55.48 29.35 55.48C29.35 55.17 29.61 55.28 29.61 55.17L29.56 55.12C29.68 55.08 29.8 54.99 29.91 54.9C30.02 55.11 30.24 55.19 30.35 55.19C30.45 55.19 30.59 55.05 30.6 54.66C31.29 54.82 31.5 55.33 31.68 55.33C31.63 55.02 31.16 54.72 31.16 54.56C31.16 53.54 32.14 53.03 32.14 52.93C32.14 52.8967 32.1233 52.88 32.09 52.88C32.14 52.88 32.4 52.37 32.4 52.12C32.4 51.61 33.23 51.66 33.23 51.61C33.23 51.56 32.97 51.56 32.97 51.46C32.97 51.05 33.13 51.1 33.33 51.1C33.59 51.15 33.64 51.3 33.9 51.3C33.9 50.89 33.07 51.3 33.07 50.59C33.17 50.59 33.22 50.64 33.33 50.64C33.33 50.39 32.92 50.59 32.92 50.18C32.92 49.87 33.02 49.72 33.02 49.52C33.02 49.37 32.87 49.21 32.87 49.01H33.59C33.54 48.81 32.97 48.6 32.97 48.55H33.02C32.89 48.55 32.92 48.45 32.92 48.4C33.13 48.4 32.97 47.94 33.18 47.94C33.18 47.33 34.37 47.58 34.37 47.12C33.24 47.12 33.49 47.68 33.13 47.68C33.13 47.58 33.08 47.73 32.92 47.48C32.87 47.33 32.77 47.22 32.77 47.07C32.77 46.92 33.13 46.82 33.13 46.71C33.23 46.76 33.44 46.76 33.59 46.76C33.79 46.76 33.95 46.76 33.95 46.66C33.95 46.61 33.9 46.61 33.9 46.56C33.95 46.51 34 46.46 34.05 46.36C34 46.36 32.92 45.75 32.92 45.65C32.92 45.27 32.69 45.24 32.58 45.03H32.59C32.64 45.03 32.69 45 32.72 45C32.69 45 32.95 45.08 33 45.08C33.02 45.08 33.36 44.9 33.36 44.65C33.25 44.63 33.16 44.57 33.07 44.52C33.14 44.45 33.17 44.43 33.17 44.43C33.17 44.38 33.12 44.38 33.07 44.38C33 44.38 32.94 44.41 32.88 44.45H32.85C32.77 44.45 32.5 44.57 32.34 44.73C32.21 44.6 32.09 44.45 32.09 44.38C32.19 44.43 32.3 44.43 32.45 44.43C32.45 44.33 32.6 44.38 32.71 44.33C32.45 44.33 32.14 44.33 32.04 44.38C32.04 44.28 32.76 44.38 32.76 44.13C32.76 44.08 32.4 44.08 32.19 44.03C32.19 44.13 31.78 44.03 31.78 44.23H31.68C31.16 44.23 30.6 43.72 30.44 43.57C30.34 43.62 30.18 43.62 30.08 43.62C30.08 43.62 28.89 43.21 28.89 43.16C28.89 43.16 28.53 43.52 28.32 43.52C28.14 43.52 27.99 43.49 27.84 43.45C28.04 43.38 28.23 43.22 28.23 43.05C27.99 43.15 27.8 43.18 27.75 43.43C27.51 43.36 27.29 43.27 27.08 43.27C27.13 43.27 26.51 43.42 26.51 43.52L26.05 43.47C25.89 43.78 25.02 44.08 24.86 44.08C24.7 44.08 24.6 44.08 24.55 43.98C24.24 43.98 23.98 44.64 23.88 44.64V44.59C23.8133 44.59 23.78 44.6067 23.78 44.64C23.78 44.64 23.73 44.59 23.68 44.59C23.32 44.59 23.42 45.1 23.16 45.1C23.16 45.15 23.16 45.25 23.21 45.35C23 45.45 22.95 45.6 22.95 45.6V45.55C22.85 45.86 22.59 46.06 22.23 46.06C22.02 46.06 21.87 45.91 21.82 45.91C21.7533 45.9767 21.72 46.06 21.72 46.16C21.87 46.16 21.77 46.11 21.93 46.11C22.39 46.11 22.5 46.11 22.5 46.52C22.5 46.62 22.24 46.62 22.24 46.78C22.24 46.83 22.29 46.88 22.29 46.88C22.29 46.88 21 47.29 21 47.39C21 47.44 21.05 47.49 21.1 47.49C21.62 47.49 21.77 47.18 21.87 47.18H22.02L21.97 47.13C22.28 47.13 22.02 47.03 22.38 47.03C22.38 47.03 22.43 47.08 22.43 47.13C22.43 47.18 22.33 47.23 22.28 47.23C22.28 47.23 22.23 47.18 22.23 47.13C22.13 47.18 21.97 47.23 21.97 47.28C21.97 47.23 22.8 48.15 22.95 48.3C22.9 48.45 22.9 48.66 22.9 48.81C22.95 48.86 22.95 48.96 22.95 49.01H22.64C22.6733 49.0433 22.69 49.0767 22.69 49.11C22.69 49.1433 22.6733 49.1767 22.64 49.21C22.64 49.67 23.05 49.62 23.05 50.54C22.95 50.54 22.69 50.85 22.69 50.9C22.74 50.9 22.74 50.95 22.74 50.95V50.9C22.74 51 22.79 51.05 22.79 51.15C22.79 51.4 22.74 51.51 22.53 51.61C23.2 52.68 23.56 51.36 23.56 52.99C23.56 53.24 23.41 53.24 23.41 53.4C23.41 53.65 23.51 53.6 23.82 53.71C23.97 53.61 24.08 53.61 24.18 53.61C24.18 53.61 24.33 54.07 24.54 54.07C24.54 54.12 24.49 54.12 24.49 54.17C24.69 54.41 24.56 54.47 24.77 54.61C24.77 54.61 24.76 54.59 24.75 54.58L24.8 54.63C24.8 54.63 24.78 54.62 24.77 54.61C24.92 54.83 25.07 55.31 25.27 55.6C25.68 55.55 25.63 55.04 26.04 55.04C26.87 55.04 26.97 55.75 27.28 55.86C27.18 55.96 27.18 56.22 27.18 56.32C27.18 56.42 27.23 56.52 27.33 56.52C27.43 56.52 27.54 56.37 27.54 56.26V56.25ZM29.14 64.37C29.2 64.37 29.25 64.43 29.31 64.43C29.37 64.43 29.37 64.37 29.37 64.21C29.37 64.21 29.31 64.1 29.2 64.1C29.14 64.1 29.14 64.26 29.14 64.37ZM35.01 45.18C34.51 45.18 34.46 45.49 34.46 45.85C34.46 46.21 34.55 46.4 34.65 46.5C34.59 46.77 34.57 47.07 34.57 47.21C34.79 47.08 34.73 46.8 34.79 46.59C34.84 46.61 34.88 46.62 34.92 46.62C35.02 46.57 35.07 46.52 35.17 46.52C35.22 46.52 35.27 46.57 35.37 46.57C35.4033 46.57 35.42 46.5533 35.42 46.52C35.47 46.42 35.62 46.42 35.67 46.26C35.72 46.11 35.82 45.95 35.82 45.95C35.82 45.28 35.27 45.18 35.02 45.18H35.01ZM39.33 47.9C39.5 47.9 39.5 47.84 39.5 47.79C39.5 47.68 39.5 47.63 39.44 47.57C39.39 47.57 39.33 47.85 39.33 47.9ZM34.97 46.65C34.97 46.65 34.94 46.65 34.92 46.65H34.98H34.97ZM35.35 48.47C35.35 48.14 35.29 48.19 35.02 48.08C35.02 48.3 35.13 48.47 35.35 48.47ZM50.36 23.21C50.33 23.28 50.3 23.36 50.3 23.44C50.3 23.82 50.44 24.4 50.66 24.47C50.66 24.39 50.71 24.34 50.71 24.27C50.68 24.25 50.66 24.27 50.66 24.22C50.66 24.14 50.71 24.17 50.71 24.14C50.71 24.14 50.71 24.12 50.66 24.12V23.92C50.66 23.74 50.71 23.72 50.71 23.57C50.71 23.34 50.66 23.32 50.55 23.12C50.4567 23.12 50.3933 23.1533 50.36 23.22V23.21ZM57.75 19.07C57.75 19.13 57.72 19.15 57.67 19.15C57.67 19.18 57.67 19.21 57.7 19.21V19.18C57.7 19.18 57.73 19.21 57.73 19.29C57.84 19.34 57.92 19.37 58 19.37C58.11 19.37 58.19 19.29 58.19 19.18C58.19 19.13 58.19 19.07 58.16 19.04C58.1 18.93 58.05 18.88 57.97 18.88C57.89 18.88 57.83 18.91 57.72 18.93C57.72 18.99 57.75 19.04 57.75 19.07ZM46.01 17.65V17.68C46.01 17.68 46.01 17.67 46.01 17.66V17.65ZM37.17 18.99C37.22 19.27 37.3 19.37 37.63 19.37C37.76 19.34 37.86 19.32 37.91 19.19C37.91 19.09 37.9267 19.04 37.96 19.04C37.96 18.99 37.93 19.04 37.91 18.99C37.91 18.96 37.94 18.94 37.94 18.94C37.94 18.69 37.63 18.69 37.56 18.69C37.33 18.69 37.3 18.97 37.18 18.99H37.17ZM52.68 25.94C52.57 25.94 52.49 25.97 52.35 26.02V26.15C52.35 26.35 52.38 26.74 52.74 26.74C52.9 26.74 52.96 26.36 52.96 26.25C52.96 26.07 52.88 25.94 52.69 25.94H52.68ZM58.39 29.4C58.39 29.4 58.6 29.48 58.6 29.56C58.89 29.56 59.13 29.38 59.13 29.02C59.13 28.81 58.81 28.66 58.68 28.66C58.31 28.66 58.23 28.94 58.23 29.2C58.31 29.2 58.28 29.36 58.39 29.41V29.4ZM58.68 21.22C58.68 21.22 58.83 21.25 58.83 21.3C58.83 21.33 58.81 21.36 58.81 21.36C58.91 21.39 59 21.42 59.1 21.42C59.2 21.42 59.29 21.39 59.37 21.36C59.35 21.11 59.18 20.98 58.96 20.95C58.86 21.09 58.74 21.06 58.69 21.22H58.68ZM63.21 17.33C63.21 17.41 63.32 17.44 63.39 17.49C63.58 17.49 63.71 17.65 63.81 17.76C63.81 17.8 63.81 17.84 63.82 17.86C63.84 17.87 63.86 17.88 63.88 17.85C63.9 17.87 63.92 17.88 63.94 17.88C63.97 17.88 63.97 17.85 63.97 17.85C63.94 17.85 64.13 18.01 64.34 18.01C64.29 17.79 63.45 17.22 63.34 17.22C63.21 17.22 63.21 17.3 63.21 17.33ZM60.49 17.49C60.3 17.55 60.27 17.63 60.27 17.77C60.27 17.96 60.57 18.07 60.54 18.07H60.65C60.7 18.07 60.73 18.07 60.73 18.12C60.89 18.12 61.06 18.09 61.06 17.93C60.98 17.87 60.73 17.71 60.73 17.63C60.73 17.52 60.48 17.66 60.48 17.49H60.49ZM55.79 30.44C55.68 30.44 55.62 30.52 55.62 30.55C55.62 30.63 55.76 30.69 55.87 30.69C55.93 30.69 55.95 30.69 55.98 30.66C56.01 30.6 56.01 30.55 56.04 30.49C55.98 30.46 55.9 30.43 55.79 30.43V30.44ZM58.23 24.44C58.23 24.5667 58.2867 24.65 58.4 24.69C58.48 24.58 58.65 24.52 58.65 24.39C58.65 24.28 58.57 24.22 58.46 24.22C58.27 24.22 58.24 24.3 58.24 24.44H58.23ZM57.86 24.58C58.13 24.58 58.19 24.52 58.19 24.31C58.19 24.23 58.19 24.14 58.16 24.06C57.97 24.06 57.83 24.09 57.66 24.17C57.66 24.56 57.74 24.58 57.85 24.58H57.86ZM69.21 17.79C69.32 17.76 69.43 17.68 69.51 17.68C69.48 17.6 69.45 17.49 69.37 17.49C69.18 17.49 69.21 17.74 69.21 17.79ZM62.08 23.05C62.08 23.16 62.11 23.22 62.19 23.22C62.27 23.22 62.36 23.19 62.44 23.16L62.5 22.83C62.28 22.83 62.09 22.86 62.09 23.05H62.08ZM45.39 12.3C45.39 12.3333 45.38 12.35 45.36 12.35C45.31 12.35 45.15 12.12 45.15 12.04L44.83 12.09C44.83 12.04 44.78 12.01 44.7 12.01C44.65 12.01 44.57 12.04 44.54 12.06C44.46 12.16 44.43 12.16 44.28 12.16C43.88 12.16 43.78 12.76 43.7 12.81C43.65 12.86 43.62 12.89 43.62 12.94C43.62 12.97 43.67 13.28 43.78 13.28C43.78 13.33 43.73 13.36 43.73 13.46C43.73 13.93 44.34 14.06 44.47 14.14C44.58 14.22 44.55 14.27 44.63 14.27C44.79 14.27 44.84 14.17 44.92 14.17C44.95 14.2 45 14.25 45.05 14.25C45.05 14.07 45.89 13.81 45.89 13.21C45.89 12.92 45.76 12.4 45.39 12.3ZM57.33 24.3C57.33 24.24 57.3 24.19 57.28 24.11C56.98 24.11 56.74 24.08 56.66 24.55C56.71 24.58 56.77 24.58 56.82 24.58C57.01 24.58 57.34 24.41 57.34 24.3H57.33ZM60.5 26.12C60.5 26.17 60.53 26.22 60.6 26.3C60.65 26.5 60.93 26.45 60.93 26.48C60.93 26.48 60.9 26.48 60.9 26.51C61 26.43 61.08 26.38 61.18 26.31C61.18 25.67 61 25.72 60.65 25.72C60.65 25.87 60.5 25.98 60.5 26.13V26.12ZM64.14 18.76C64.06 18.76 64 18.79 64 18.87C64 18.9 64.03 18.95 64.03 19.01C64.09 19.15 64.25 19.26 64.33 19.26C64.41 19.26 64.5 19.2 64.52 19.2C64.49 18.92 64.44 18.76 64.13 18.76H64.14ZM58.01 33.13C58.11 33.23 58.16 33.45 58.16 33.6C58.51 33.6 58.69 33.97 58.86 33.97C58.94 33.97 59.01 33.95 59.01 33.87C59.11 33.9 59.21 33.92 59.31 33.92C59.31 33.87 59.34 33.87 59.34 33.87C59.34 33.85 59.34 33.82 59.31 33.8C59.59 33.65 59.81 33.58 59.81 33.08C59.81 32.58 59.26 32.36 59.26 32.16C59.21 32.19 59.13 32.21 59.06 32.21C58.99 32.21 58.91 32.19 58.81 32.19C58.56 32.19 58.18 32.39 58.18 32.54C58.18 32.56 58.2 32.59 58.2 32.61C58.05 32.71 58 32.71 58 32.88V33.13H58.01ZM60.27 24.01C60.32 23.95 60.3 23.98 60.32 23.9C60.24 23.9 60.27 23.96 60.27 24.01ZM65.48 23.25C65.54 23.42 65.67 23.44 65.81 23.44C66.06 23.44 66.06 23.33 66.06 23.14C66.06 22.95 65.9 22.89 65.87 22.89C65.62 22.89 65.49 23 65.49 23.25H65.48ZM59.7 19.48C59.92 19.48 60.14 18.82 60.14 18.8C60.14 18.78 60.11 18.72 60.11 18.69C60.11 18.64 60.17 18.64 60.17 18.53C60.17 18.42 60.17 18.35 59.98 18.35C59.79 18.85 59.65 19.03 59.6 19.46C59.63 19.49 59.68 19.49 59.71 19.49L59.7 19.48ZM54.06 26.88C54.06 26.95 54.06 27.01 54.06 27.07C54.12 27.05 54.17 26.98 54.21 26.88C54.24 26.88 54.27 26.88 54.31 26.88C54.51 26.83 54.65 26.72 54.7 26.51C54.85 26.46 54.95 26.33 54.95 26.19C54.95 25.98 54.85 25.93 54.73 25.93C54.06 25.93 53.94 26.59 53.82 26.59C53.84 26.83 53.86 26.87 54.07 26.88H54.06ZM64.82 18.69C64.99 18.69 64.96 18.55 64.96 18.44H64.69C64.72 18.55 64.75 18.69 64.83 18.69H64.82ZM60.3 26.2V25.99C60.35 25.99 60.38 25.99 60.38 25.96C60.38 25.91 60.3 25.83 60.3 25.8C60.2 25.82 60.14 25.88 60.09 25.95C59.98 25.74 59.76 25.59 59.36 25.59C59.26 25.59 59.31 25.64 59.2 25.64C59.12 25.64 58.97 25.59 58.91 25.59C58.91 25.9 58.67 25.9 58.67 26.37C58.67 26.98 59.12 27.17 59.41 27.18C59.41 27.22 59.4 27.25 59.4 27.29C59.47 27.24 59.52 27.19 59.58 27.13C59.8 27.07 60.19 26.93 60.19 26.45C60.19 26.4 60.19 26.34 60.19 26.29C60.22 26.25 60.26 26.22 60.3 26.19V26.2ZM65.49 18.01C65.23 18.06 65.02 18.13 65.02 18.36C65.02 18.56 65.1 18.81 65.33 18.81C65.36 18.81 65.41 18.81 65.43 18.78C65.43 18.73 65.69 18.61 65.69 18.36C65.69 18.24 65.61 18.06 65.56 18.06C65.53 18.06 65.53 18.09 65.53 18.09C65.5 18.09 65.48 18.06 65.48 18.02L65.49 18.01ZM55.18 37.82C55.18 37.82 55.18 37.8 55.18 37.79V37.82ZM47.07 23.11C46.98 23.11 46.88 23.06 46.8 22.98L47.26 22.88C47.23 23.01 47.18 23.12 47.08 23.12L47.07 23.11ZM43.98 26.39C43.84 26.39 43.68 26.28 43.51 26.28C43.54 26.2 43.54 26.03 43.7 26.03C43.97 26.03 43.95 26.2 43.97 26.39H43.98ZM42.85 42.83C43.02 42.83 43.16 43 43.29 43.15C43.13 43.06 42.73 42.97 42.57 42.97C42.57 42.98 42.57 43 42.55 43.01C42.53 42.97 42.51 42.93 42.5 42.88C42.63 42.88 42.47 42.83 42.65 42.83H42.85ZM40.9 43.6H40.69C40.75 43.58 40.82 43.56 40.9 43.56C40.9 43.58 40.9 43.59 40.9 43.6ZM44.66 19.06C44.3 18.96 44.14 18.81 44.12 18.81C44.14 18.81 44.14 18.81 44.14 18.83C44.12 18.83 44.12 18.83 44.12 18.81C44.08 18.81 44 18.81 43.81 18.81C43.65 18.81 43.53 18.81 43.53 18.86C43.48 18.86 43.43 18.83 43.38 18.81C43.38 18.89 42.84 19.14 42.84 19.22C42.45 19.61 42.37 19.9 42.36 20C42.37 20.03 42.41 20.01 42.41 20.04C42.41 20.65 42.1 20.47 42.05 20.65C42 20.9 41.69 21.26 41.56 21.26C41.56 21.34 41.59 21.39 41.59 21.44C41.59 21.52 41.43 21.59 41.28 21.59C41.05 21.59 40.69 21.08 40.33 21.08C40.33 21.11 40 21.36 40.02 21.36C40.02 21.36 40 21.36 39.99 21.36C39.86 21.49 39.71 21.6 39.53 21.69C39.5 21.69 39.48 21.66 39.48 21.66C39.22 21.92 38.78 21.92 38.73 21.92H38.6C38.55 21.92 38.37 22.05 38.37 22.05H38.19C38.14 22.1 37.86 22.36 37.44 22.51C37.42 22.59 37.26 22.74 37.06 22.89C36.92 23.47 36.84 23.56 36.72 23.56C36.69 23.56 36.64 23.53 36.59 23.53C36.46 23.53 36.45 23.62 36.41 23.67C36.37 23.55 36.37 23.35 36.02 23.35C35.58 23.35 35.45 23.5 35.43 23.63C35.43 24.19 35.61 24.14 35.82 24.35C35.97 24.35 36.28 24.3 36.39 24.12C36.4 24.09 36.43 24.01 36.45 23.93C36.46 23.94 36.48 23.96 36.5 23.97V24.53C36.5 24.84 36.04 24.63 36.04 24.89C36.04 25.15 36.43 25.12 36.45 25.3C36.45 25.38 36.48 25.45 36.5 25.55C36.45 25.55 36.47 25.58 36.45 25.58H36.24C36.24 25.91 36.6 25.9 36.7 26.08C36.65 26.07 36.59 26.06 36.52 26.06C36.52 26.14 36.55 26.27 36.6 26.4C36.51 26.47 36.4 26.52 36.4 26.63C36.4 26.74 36.53 26.78 36.63 26.81C36.63 26.78 36.71 26.76 36.78 26.76C36.78 26.76 36.79 26.76 36.8 26.76C36.84 26.8 36.89 26.83 36.93 26.83C36.93 26.83 36.94 26.82 36.96 26.81C37.14 26.89 37.37 27.04 37.42 27.16C37.37 27.16 37.37 27.19 37.37 27.21C37.19 27.21 36.55 27.03 36.55 27.01C36.45 27.04 36.32 27.06 36.32 27.14C36.32 27.32 36.55 27.34 36.63 27.37C36.63 27.57 36.53 27.57 36.45 27.78C36.45 27.86 36.55 27.96 36.58 28.01C36.99 28.01 37.15 27.91 37.15 27.65C37.23 27.68 37.33 27.68 37.43 27.7C37.43 27.65 37.46 27.62 37.48 27.62C37.74 27.62 38.13 28.13 38.13 28.11C38.13 28.24 37.92 28.39 37.92 28.39C37.95 28.47 37.92 28.67 38.02 28.67C38.02 28.98 37.94 28.98 37.69 29.03C37.61 28.9 37.17 28.8 37.17 28.8C37.09 28.8 36.91 28.85 36.91 29.03C36.91 29.08 37.53 29.59 37.53 29.59C37.53 29.85 37.27 29.87 37.27 30C36.86 30 36.65 29.28 36.5 29.28C36.27 29.28 36.17 29.43 36.17 29.59C36.17 29.92 36.58 30.18 36.58 30.2C36.58 30.22 36.55 30.23 36.55 30.25C36.68 30.25 37.12 30.91 37.12 30.86C37.12 31.12 37.02 31.22 36.97 31.22C36.92 31.22 36.76 31.19 36.69 31.19C36.69 31.19 36.41 31.34 36.41 31.42L36.13 31.39C36.08 31.39 36 31.36 35.95 31.36C35.9 31.36 35.87 31.39 35.87 31.41C35.84 31.41 35.82 31.38 35.79 31.38C35.64 31.38 35.48 31.48 35.41 31.69C35.56 31.74 35.72 31.79 35.87 31.84C35.87 31.79 35.97 31.79 36.08 31.79C36.31 31.79 36.31 31.66 36.65 31.66C36.65 31.69 36.93 31.76 37.01 31.79C36.96 32.15 36.73 32.02 36.73 32.25C36.73 32.28 36.75 32.32 36.78 32.35C36.66 32.48 36.51 32.57 36.32 32.57C36.14 32.57 36.06 32.19 35.86 32.19C35.71 32.19 35.68 32.24 35.68 32.29C35.68 32.37 35.78 32.62 35.78 32.88C35.78 32.98 35.75 33.03 35.65 33.03C35.42 33.03 35.19 32.95 35.08 32.9C35.05 33 35.03 33 34.93 33C34.93 33.1 34.96 33.23 34.96 33.33C34.96 33.53 34.73 34.02 34.29 34.02C34.21 34.02 33.88 33.89 33.88 33.84C33.73 33.84 33.6 33.89 33.6 34.04C33.6 34.3 33.91 34.47 33.91 34.6C33.91 35.01 33.57 35.6 33.39 35.6C33.39 35.6 33.31 35.52 33.16 35.52C32.8 35.52 32.57 35.72 32.1 35.72C32.02 35.72 31.97 35.72 31.97 35.69C31.89 35.72 31.87 35.74 31.84 35.74C31.81 35.74 31.32 35.41 31.32 35.41C31.09 35.41 30.78 35.54 30.78 35.82C30.78 36.08 31.04 36.13 31.14 36.15C31.17 36.12 31.17 36.05 31.22 36.05C31.25 36.05 31.4 36.13 31.5 36.13C31.5 36.08 31.73 36.05 31.89 36.05C31.97 36.05 32.04 36.05 32.04 36.08L32.35 36.03C32.35 36.08 33.36 36.62 33.36 37.33C33.36 37.53 33.21 37.79 33 37.79C32.69 37.79 32.43 37.69 32.25 37.69C32.25 37.82 31.86 37.69 31.86 37.97C31.86 38.05 32.09 38.2 32.22 38.2C32.45 38.2 32.63 38.07 32.81 38.07C32.91 38.07 33.22 38.1 33.22 38.53C33.22 38.53 33.43 38.84 33.43 38.96C33.43 38.96 33.35 39.24 33.25 39.27C33.2 39.27 33.15 39.24 33.12 39.24C33.04 39.24 32.86 39.39 32.86 39.47C32.86 39.73 33.2 39.8 33.22 39.8C33.14 40.44 32.55 40.39 32.55 40.49C32.55 40.54 32.6 40.59 32.6 40.64C32.86 40.59 33.5 40.31 33.58 40.18C33.97 40.18 33.89 40.38 34.07 40.38C34.07 40.74 33.58 40.48 33.58 40.71L33.32 40.68C33.32 40.73 33.24 40.78 33.22 40.86L33.84 40.71C33.92 41.32 34.51 41.53 34.51 41.76C34.56 41.73 34.61 41.71 34.66 41.71C34.66 41.74 34.69 41.74 34.69 41.74C34.74 41.74 34.79 41.71 34.84 41.71H35.25C35.3 41.8 35.32 41.81 35.39 41.81C35.37 41.84 35.36 41.88 35.36 41.92C35.36 42.1 35.46 42.23 35.59 42.35C35.73 42.35 35.82 42.33 35.88 42.26C35.89 42.3 35.9 42.34 35.9 42.4C35.9 42.5 35.69 42.58 35.69 43.09C36 43.09 36 43.06 36.2 42.53C36.25 42.53 36.3 42.5 36.36 42.5C36.62 42.5 36.75 42.7 36.75 42.7C36.75 42.7 36.78 42.7 36.8 42.67C36.8 42.87 37.24 43.03 37.24 43.08H37.19C37.19 43.36 37.29 43.51 37.37 43.51C37.6 43.51 37.73 43.2 38.01 43.2C38.83 43.2 38.63 43.86 38.89 43.86C38.94 43.86 39.07 43.86 39.07 43.71C39.07 43.63 39.04 43.53 39.04 43.45C39.04 43.2 39.4 43.12 39.63 43.12C39.97 43.12 40.02 43.48 40.15 43.48C40.18 43.48 40.23 43.45 40.28 43.45C40.41 43.45 40.43 43.5 40.56 43.5C40.56 43.5 40.56 43.5 40.57 43.5C40.52 43.62 39.85 43.41 39.85 44C39.85 44 39.7 44.56 39.49 44.56C39.49 45.63 40.73 46.25 40.73 46.25C42.12 46.25 42.07 45.38 42.07 45.02C42.07 44.97 41.61 44 41.61 44H41.66C41.66 43.9 41.14 43.54 40.84 43.54C40.84 43.54 40.88 43.54 40.89 43.5H40.9C40.95 43.5 41 43.47 41.05 43.45C41.02 43.37 41.05 43.12 40.95 43.12C41 42.94 41.03 42.76 41.34 42.76V42.81C41.39 42.81 41.64 42.71 41.65 42.66C41.7 42.68 41.74 42.7 41.79 42.7C41.79 42.7 41.8 42.7 41.81 42.7C41.92 42.72 42.03 42.74 42.14 42.76C42.14 43.12 41.88 42.94 41.88 43.2C41.88 43.25 41.93 43.2 41.93 43.3C42.13 43.25 42.13 43.15 42.19 42.97C42.25 42.98 42.28 43.02 42.31 43.06C42.29 43.16 42.29 43.22 42.29 43.33C42.29 43.53 42.5 43.76 42.78 43.76C43.09 43.76 43.29 43.15 43.36 43.06C43.42 43.12 43.48 43.17 43.53 43.17C43.58 43.17 43.63 43.14 43.68 43.14C43.89 43.47 44.12 44.03 44.38 44.03C44.48 44.03 44.61 43.98 44.66 43.98C44.66 44.03 44.69 44.06 44.71 44.06C44.76 44.06 44.89 43.98 44.89 43.93C44.86 43.93 44.86 43.83 44.86 43.78C44.86 43.6 44.58 43.5 44.5 43.35H44.34C44.34 43.3 44.31 43.27 44.31 43.15C44.88 43.25 45.78 43.4 45.75 43.4C46.19 43.4 46.16 43.83 46.37 43.89C46.37 43.74 46.34 43.58 46.19 43.51C46.3 43.38 46.98 43.38 47.2 43.08C47.23 43.12 47.26 43.14 47.28 43.14C47.36 43.14 47.56 43.06 47.56 42.91C47.56 42.84 47.54 42.77 47.5 42.69C47.69 42.44 47.86 42.02 48.01 42.02H48.19C48.19 41.9867 48.2067 41.97 48.24 41.97C48.21 41.84 48.19 41.69 48.14 41.54C48.24 41.54 48.22 41.41 48.24 41.34H48.44C48.44 40.85 48.21 40.7 48.21 40.45C48.21 39.96 48.42 39.94 48.78 39.94C49.11 39.94 48.93 40.09 49.17 40.09C49.2 40.09 49.25 40.06 49.27 40.06C49.27 40.16 49.63 40.47 49.73 40.67L50.32 40.75C50.32 40.75 50.81 40.65 50.81 40.27C50.81 40.04 50.53 39.81 50.29 39.81C50.08 39.81 49.8 39.86 49.72 40.04C49.67 40.04 49.64 40.01 49.62 40.01C49.6 40.01 49.57 40.04 49.57 40.06C49.36 40.03 49.24 39.98 49.24 39.68L48.98 39.73C48.98 39.65 48.7 39.6 48.7 39.32C48.7 39.22 48.78 39.14 48.78 38.96C48.78 38.55 48.65 38.53 48.65 38.35C48.65 38.32 48.68 38.29 48.72 38.27C48.8 38.28 48.86 38.3 48.86 38.34C48.89 38.34 48.99 38.26 49.07 38.26C49.12 38.26 49.15 38.29 49.15 38.34C49.31 38.29 49.8 38.26 49.8 38.14C49.85 38.14 49.9 38.17 49.95 38.17C50.08 38.17 50 38.09 50.16 38.09C50.32 38.09 50.55 38.6 50.6 38.6V38.57C50.73 38.57 50.75 38.65 50.86 38.65C51.04 38.65 51.25 38.52 51.4 38.52C51.55 38.52 51.71 38.6 51.86 38.6C52.04 38.6 52.14 38.32 52.14 38.22C52.14 38.04 51.94 37.89 51.94 37.73C51.94 37.57 52.04 37.5 52.17 37.5C52.48 37.6 52.53 37.73 52.53 37.86C52.53 37.94 52.5 37.99 52.5 38.04C52.5 38.09 52.53 38.14 52.68 38.14C52.78 38.14 52.89 38.11 52.96 38.09C52.96 37.86 52.88 37.68 52.68 37.66C52.63 37.66 52.6 37.69 52.55 37.69C52.42 37.69 52.37 37.25 52.37 37.18C52.37 37 52.47 36.95 52.47 36.75C52.47 36.65 52.26 36.49 52.21 36.34C52.26 36.34 52.29 36.34 52.29 36.31C52.29 36.31 52.26 36.31 52.26 36.29C52.59 36.47 53.19 36.85 53.34 36.85C53.36 36.85 53.42 36.83 53.44 36.83C53.44 36.91 53.7 37.03 53.85 37.03C53.85 36.57 52.59 36.39 52.54 36.39H52.57C52.47 36.21 52.34 36.29 52.34 36.19C52.34 35.99 52.8 35.55 52.8 35.5C53.03 35.6 53.57 35.65 53.86 35.65C53.86 35.52 53.14 35.42 52.91 35.34C52.91 35.24 52.99 35.19 53.09 35.19C53.22 35.19 53.27 35.34 53.37 35.34C53.47 35.34 53.55 35.31 53.63 35.31C53.83 35.31 53.83 35.56 54.07 35.56C54.05 35.61 54.02 35.64 54.02 35.66C54.02 35.79 54.33 35.79 54.51 35.79C54.59 35.79 54.64 35.71 54.64 35.71C54.61 35.66 54.23 35.58 54.23 35.56C54.23 35.54 54.26 35.54 54.31 35.54C54.26 35.36 53.36 34.9 53.36 34.85C53.36 34.57 53.15 34.42 53.15 34.21C53.15 34.19 53.54 33.67 53.54 33.7C53.54 33.67 53.51 33.67 53.46 33.67V33.44C53.36 33.34 53.28 33.13 53.13 33.13C53.13 32.8 53.7 32.7 54.01 32.7C53.93 32.32 53.39 32.27 53.39 32.24H53.42C53.32 32.24 53.19 32.09 52.96 32.09C52.88 32.09 52.81 32.12 52.73 32.17C52.73 32.09 52.68 32.14 52.68 32.07C52.73 32.07 52.81 32.1 52.81 32.05C52.81 32.02 52.81 32 52.78 31.97C52.73 32 52.68 32.02 52.65 32.02C52.5 32.02 52.39 31.61 52.39 31.43C52.47 31.4 52.55 31.4 52.65 31.38C52.65 31.63 53.32 31.63 53.3 31.63C53.48 31.63 53.61 31.61 53.61 31.32C53.61 31.12 53.56 30.96 53.38 30.78C52.61 30.78 52.86 31.37 52.2 31.37C52.17 31.37 52.12 31.12 52.07 31.12C52.07 31.08 52.07 31.05 52.07 31.02C52.17 30.99 52.27 30.94 52.3 30.81C52.38 30.81 52.48 30.96 52.55 30.96C52.65 30.96 52.78 30.78 52.88 30.78C52.67 30.17 52.01 30.14 52.01 30.09C51.96 30.09 51.93 30.14 51.91 30.14V30.11C51.91 29.96 51.5 28.79 51.42 28.78V28.8V28.77C51.42 28.67 51.45 28.51 51.45 28.44C51.45 28.16 50.21 27.9 50.21 27.39C50.21 27.19 50 27.13 49.77 27.13C49.67 27.13 49.54 27.16 49.46 27.16C49.18 27.16 48.79 26.91 48.79 26.78C48.76 26.81 48.74 26.81 48.71 26.81C48.68 26.81 48.68 26.76 48.68 26.73C48.47 26.8 48.43 26.91 48.26 26.98C48.21 26.93 48.18 26.88 48.18 26.87C48.22 26.82 48.25 26.79 48.29 26.79C48.34 26.79 48.39 26.84 48.44 26.84C48.47 26.84 48.49 26.81 48.52 26.76C48.52 26.68 48.39 26.63 48.39 26.56C48.39 26.41 48.67 26.23 48.72 26.23C49.08 26.23 49.49 26.43 49.6 26.43L49.63 26.4C49.32 26.3 49.04 26.15 48.75 26.04C48.75 25.91 48.88 25.86 48.88 25.84C48.88 25.71 48.8 25.64 48.8 25.53C48.8 25.15 49.32 25.17 49.68 25.02C49.55 25.02 49.47 24.97 49.4 24.97C49.33 24.97 49.24 25.02 49.19 25.02C49.16 25.02 49.14 24.99 49.06 24.99C49.06 24.99 48.9833 25 48.83 25.02C48.83 24.94 48.78 24.89 48.78 24.87C48.78 24.77 48.99 24.79 48.99 24.69C48.99 24.61 48.78 24.64 48.71 24.33C48.79 24.33 48.97 24.33 48.97 24.2C48.97 24.17 48.97 24.15 48.92 24.15C48.84 24.15 48.74 24.18 48.66 24.2C48.56 24.05 48.48 23.89 48.45 23.69C48.5 23.66 48.58 23.51 48.58 23.49C48.58 23.47 48.55 23.44 48.5 23.44C48.45 23.44 48.4 23.54 48.35 23.54C48.32 23.54 47.94 23.39 47.83 23.23C47.85 23.2 47.88 23.15 47.88 23.1C47.88 23.02 47.85 22.95 47.85 22.9C47.85 22.88 47.93 22.85 47.93 22.82C47.75 22.9 47.78 23.08 47.47 23.08C47.42 23.08 47.37 23.03 47.37 22.82C47.37 22.8 47.37 22.76 47.37 22.73L47.65 22.67C47.6 22.57 47.57 22.54 47.52 22.54C47.48 22.54 47.43 22.54 47.38 22.55C47.38 22.46 47.4 22.37 47.41 22.26C47.38 22.26 47.38 22.29 47.38 22.29C47.33 22.35 47.3 22.46 47.28 22.57C47.11 22.6 46.92 22.65 46.76 22.65C46.73 22.65 46.71 22.65 46.7 22.63C46.7 22.59 46.68 22.55 46.68 22.5C46.68 22.47 46.71 22.42 46.71 22.37C46.71 22.36 46.71 22.35 46.71 22.33C46.72 22.29 46.73 22.26 46.74 22.24C46.66 22.24 46.64 22.19 46.64 22.14C46.64 21.65 46.92 21.73 47 21.45C46.87 21.45 46.79 21.53 46.74 21.53C46.69 21.53 46.66 21.5 46.64 21.4C46.95 21.22 47.26 20.99 47.26 20.79C47.26 20.74 47.21 20.64 47.13 20.64C46.46 20.64 46.69 21.76 46.46 21.76C46.43 21.76 46.41 21.73 46.38 21.66C46.35 21.53 46.25 21.61 46.23 21.46C46.23 21.38 46.23 21.31 46.26 21.2C46.23 21.23 46.21 21.23 46.18 21.23C46.15 21.23 46.16 21.23 46.16 21.18C46.06 21.18 45.95 21.21 45.88 21.21V21.16L45.85 21.19C45.82 21.19 45.82 21.16 45.82 21.11C45.82 21.06 45.82 21.03 45.85 21.03L45.88 21.06C45.88 21.06 45.91 21.03 45.91 20.98C45.83 21 45.78 21.03 45.76 21.03C45.74 21.03 45.5 20.75 45.37 20.75C45.42 20.67 45.58 20.78 45.58 20.62C45.48 20.65 45.35 20.67 45.24 20.67C45.24 20.39 45.34 20.26 45.52 20.08C45.49 19.72 44.82 19.49 44.72 19L44.66 19.06ZM57.21 36.35C57.32 36.32 57.43 36.29 57.54 36.29V36.18C57.48 36.29 57.21 36.18 57.21 36.35ZM56.77 39.04C56.69 39.04 56.52 38.93 56.39 38.93C56.33 38.93 56.25 38.96 56.2 39.04C56.26 39.1 56.31 39.18 56.37 39.18C56.43 39.18 56.48 39.1 56.51 39.1C56.57 39.1 56.62 39.16 56.68 39.16C56.68 39.08 56.73 39.1 56.79 39.05L56.77 39.04ZM58.18 35.22C57.83 35.32 57.55 35.82 57.55 35.87C57.57 35.87 57.57 35.9 57.57 35.9C57.67 35.66 58.12 35.59 58.22 35.27L58.2 35.3C58.2 35.3 58.18 35.25 58.18 35.22ZM55.97 38.59C56.03 38.59 56.11 38.62 56.16 38.62C56.3 38.62 56.41 38.59 56.55 38.59C56.55 38.48 56.52 38.45 56.47 38.45C56.42 38.45 56.33 38.48 56.28 38.48C56.2 38.48 56.14 38.45 56.09 38.45C56.04 38.45 55.98 38.48 55.98 38.59H55.97ZM46.92 18.13C47.11 18.13 47.25 17.99 47.25 17.86C47.25 17.81 47.22 17.75 47.2 17.67C47.12 17.56 47.04 17.45 46.93 17.45C46.71 17.45 46.58 17.72 46.58 17.88C46.58 18.07 46.8 18.12 46.93 18.12L46.92 18.13ZM58.54 35.55C58.3 35.55 57.78 35.88 57.67 36.12C58.41 36.12 58.41 35.6 58.8 35.6C58.75 35.49 58.77 35.44 58.64 35.44C58.59 35.47 58.54 35.47 58.54 35.55ZM55.81 31.97C55.86 31.97 55.89 31.94 55.89 31.87C55.89 31.82 55.86 31.77 55.86 31.71C55.61 31.76 55.56 31.92 55.48 32.12C55.42 32.22 55.37 32.3 55.29 32.35V32.56C55.29 32.56 55.37 32.56 55.37 32.59L55.34 32.62C55.47 32.62 55.79 32.01 55.81 31.97ZM55.4 37.26C55.59 37.26 56.08 37.26 56.08 37.04C56.08 36.98 56 36.93 55.92 36.93C55.81 36.93 55.4 37.15 55.4 37.26ZM52.28 27.41C52.23 27.64 52.14 27.87 52.12 28.12C52.12 28.22 52.23 28.43 52.37 28.43C52.4 28.43 52.45 28.4 52.48 28.33C52.56 28.18 52.59 28.08 52.59 27.95C52.59 27.67 52.53 27.42 52.29 27.42L52.28 27.41ZM66.48 20.5C66.42 20.42 66.26 20.25 66.12 20.25C66.09 20.25 66.06 20.25 66.04 20.28C66.18 20.36 66.32 20.5 66.48 20.5ZM64.91 19.75C65.16 19.89 65.45 20.16 65.7 20.16C65.62 20.08 65.09 19.72 64.93 19.72C64.93 19.72 64.9 19.72 64.9 19.75H64.91ZM63.94 26C63.91 25.89 63.86 25.84 63.8 25.84C63.74 25.84 63.66 25.92 63.66 26.06C63.72 26.09 63.77 26.17 63.83 26.17C63.83 26.17 63.99 26.06 63.99 26.03C63.99 26.03 63.9733 26.02 63.94 26ZM65.33 21.97C65.33 21.89 65.36 21.8 65.36 21.72C65.36 21.61 65.3 21.56 65.14 21.56C65.14 21.7 65.22 21.97 65.33 21.97ZM65.33 22.17L65.3 22.2C65.3 22.2 65.36 22.14 65.36 22.12C65.36 22.04 65.3 21.96 65.28 21.96C65.28 21.96 65.25 22.02 65.25 22.15C65.28 22.15 65.33 22.15 65.33 22.18V22.17ZM67.81 26.05C67.75 25.83 67.62 25.8 67.4 25.77C67.43 26.05 67.57 26.05 67.81 26.05ZM59.98 38.28C60.06 38.25 60.09 38.22 60.14 38.17C60.06 38.14 60 38.11 59.95 38.11C59.92 38.11 59.87 38.11 59.81 38.17C59.89 38.2 59.98 38.2 59.98 38.28ZM58.46 37.8C58.73 37.83 58.98 38.02 59.25 38.05C59.2 37.86 58.98 37.88 58.88 37.75C58.85 37.75 58.83 37.78 58.83 37.78C58.78 37.78 58.8 37.7 58.76 37.7C58.72 37.7 58.74 37.73 58.69 37.75C58.59 37.75 58.54 37.72 58.47 37.7V37.81L58.46 37.8ZM61.68 38.73C61.74 38.73 61.76 38.73 61.82 38.65C61.76 38.62 61.68 38.59 61.57 38.59C61.51 38.59 61.46 38.59 61.4 38.65C61.54 38.68 61.62 38.73 61.68 38.73ZM58.46 37.37C58.54 37.4 58.63 37.45 58.71 37.48C58.71 37.42 58.74 37.42 58.77 37.37C58.71 37.34 58.6 37.31 58.55 37.31C58.5 37.31 58.47 37.31 58.47 37.37H58.46ZM58.44 37.37C58.49 37.37 58.52 37.34 58.52 37.32C58.33 37.32 58.19 37.15 58.05 37.15C57.99 37.15 57.94 37.2 57.88 37.26C57.96 37.26 58.29 37.37 58.43 37.37H58.44ZM59.41 39.56C59.41 39.5 59.38 39.42 59.33 39.34C59.3 39.26 59.25 39.23 59.19 39.23C58.97 39.23 59 39.45 58.91 39.45C58.94 39.62 59.05 39.75 59.19 39.75C59.33 39.75 59.41 39.61 59.41 39.56ZM69.58 23.45C69.58 23.45 69.56 23.45 69.55 23.45H69.58ZM69.22 28.29C69.22 28.29 69.22 28.29 69.21 28.29V28.32C69.21 28.32 69.21 28.31 69.22 28.3V28.29ZM56.87 32.84C56.87 32.84 56.87 32.83 56.87 32.82V32.85V32.84ZM58.51 34.79C58.4 34.79 58.32 34.79 58.23 34.87C58.37 34.87 58.51 34.9 58.51 34.79ZM68.08 30.58C68.08 30.69 68.11 30.72 68.19 30.8C68.33 30.8 68.41 30.64 68.49 30.64C68.46 30.58 68.35 30.47 68.35 30.39C68.18 30.39 68.07 30.42 68.07 30.58H68.08ZM62.71 30.58C62.58 30.88 62.51 30.91 62.17 30.91C62.17 30.86 62.12 30.84 62.07 30.84C61.84 30.84 61.89 31.12 61.69 31.12C61.51 31.12 61.56 30.97 61.41 30.97C61.36 30.97 61.31 30.97 61.31 31.02C61.31 31.1 61.36 31.17 61.36 31.22C61.36 31.32 61.13 31.35 61.05 31.5C60.92 31.48 60.82 31.48 60.69 31.45C60.69 31.53 60.64 31.5 60.64 31.6C60.74 31.62 60.77 31.68 60.77 31.73C60.77 32.16 60.36 31.93 60.36 32.11C60.36 32.26 60.49 32.31 60.49 32.41C60.49 32.54 60.26 32.69 60.26 32.92C60.36 32.94 60.41 32.97 60.41 33.02C60.41 33.07 60.33 33.3 60.26 33.3C60.26 33.4 60.44 33.4 60.44 33.55C60.44 33.68 60.36 33.78 60.36 33.88C60.51 33.93 60.79 34.08 60.79 34.26C60.76 34.26 60.74 34.28 60.73 34.3C60.66 34.33 60.59 34.37 60.54 34.42C60.24 34.43 59.25 34.57 59.25 34.62C59.15 34.62 59.02 34.6 59.02 34.72C59.61 34.64 59.92 34.62 60.07 34.62C60.25 34.62 60.25 34.65 60.28 34.65C60.3 34.65 60.33 34.63 60.45 34.58C60.42 34.71 60.42 34.83 60.4 34.96C60.58 35.04 60.58 35.34 61.04 35.34C61.29 35.34 61.41 35.21 61.48 35.08C61.53 35.13 61.58 35.16 61.63 35.16C61.73 35.16 61.89 35.13 61.96 35.11C61.96 35.13 62.39 35.49 62.45 35.49C62.5 35.31 62.53 35.24 62.88 35.24C63.01 35.24 63.08 35.32 63.16 35.32C63.49 35.32 63.78 34.79 63.98 34.79C64.06 34.79 64.13 34.84 64.21 34.84C64.21 34.82 64.24 34.76 64.24 34.71C64.24 34.68 64.21 34.63 64.16 34.63C64.19 34.48 64.21 34.33 64.36 34.33C64.44 34.33 64.49 34.36 64.51 34.36C64.56 34.36 64.59 34.31 64.59 34.21C64.59 34.16 64.56 34.16 64.51 34.16C64.56 33.81 64.82 34.13 64.89 33.76C64.81 33.71 64.79 33.66 64.79 33.58C64.79 33.4 64.89 33.38 64.89 33.28C64.89 33.05 64.71 33.08 64.71 32.9C64.71 32.72 64.71 32.7 64.84 32.6C64.81 32.37 64.51 32.22 64.51 32.17C64.51 32.09 64.59 32.04 64.59 31.92C64.59 31.84 64.16 31.36 64.16 31.29C64.16 31.29 63.98 31.39 63.9 31.39C63.77 31.39 63.7 31.31 63.7 31.21C63.7 31.16 63.73 31.11 63.73 31.06C63.73 31.01 63.7 30.96 63.65 30.96C63.52 30.96 63.47 31.09 63.39 31.09C63.26 31.09 63.13 31.01 63.03 30.99C62.85 30.94 62.9 30.69 62.7 30.64L62.71 30.58ZM62.76 46.49H62.65V46.65C62.7033 46.61 62.74 46.5567 62.76 46.49ZM66.72 27.97C66.72 27.58 66.05 27.06 65.81 27.06C65.84 27.32 66.05 27.42 66.1 27.65C66.31 27.65 66.42 27.96 66.71 27.96L66.72 27.97ZM51.78 27.9V28.31C51.84 28.28 51.84 28.2 51.84 28.12C51.84 28.04 51.84 27.95 51.78 27.9ZM57.26 43.37C57.26 43.37 57.22 43.35 57.22 43.34C57.23 43.35 57.25 43.36 57.26 43.37ZM57.43 43.43C57.41 43.5 57.31 43.61 57.24 43.71C57.22 43.68 57.21 43.65 57.21 43.62C57.21 43.54 57.26 43.46 57.26 43.35C57.33 43.4 57.4 43.43 57.43 43.43ZM57.63 43.85C57.63 43.85 57.6 43.85 57.6 43.88H57.66C57.63 43.96 57.63 44.04 57.63 44.13C57.63 44.2 57.65 44.25 57.67 44.28C57.67 44.32 57.67 44.36 57.65 44.4C57.51 44.35 57.48 44.37 57.48 44.18C57.48 44.07 57.54 44.1 57.54 43.96C57.54 43.91 57.49 43.87 57.43 43.83C57.44 43.83 57.45 43.83 57.46 43.83C57.6 43.83 57.62 43.86 57.62 43.86L57.63 43.85ZM61.29 51.63C61.29 51.9 60.84 52.31 60.61 52.31C60.66 52.06 60.96 51.52 61.04 51.52C61.09 51.52 61.19 51.6 61.29 51.63ZM61.67 39.05C61.67 39.13 61.67 39.2 61.69 39.28C61.38 39.71 61.12 39.61 61.12 40.33C61.09 40.51 60.91 40.56 60.91 40.61C60.37 40.61 60.52 40.2 59.8 40.2C59.65 40.2 59.67 40.07 59.62 39.92C59.31 40 59.44 40.25 59 40.25C58.87 40.25 58.82 39.97 58.69 39.97C58.54 39.97 58.72 40.25 58.23 40.4C58.23 40.43 58.23 40.45 58.2 40.45C58.17 40.45 58.1 40.37 57.99 40.37C57.81 40.5 57.96 40.96 57.5 40.96C57.45 40.96 57.3 41.04 57.3 41.06C57.3 41.16 57.48 41.32 57.48 41.37C57.48 41.37 57.4633 41.36 57.43 41.34C57.43 41.34 57.34 41.43 57.31 41.48C57.27 41.3 57.25 41.32 57.04 41.32C57.06 41.38 57.07 41.42 57.09 41.44C57.07 41.44 57.04 41.44 57.02 41.44C56.97 41.44 56.94 41.47 56.94 41.57C57.07 41.62 57.09 41.6 57.12 41.75C57.12 41.9 57.07 42.06 57.04 42.21H56.78L56.81 42.24C56.81 42.26 56.78 42.29 56.76 42.29C56.76 42.29 56.76 42.26 56.73 42.26C56.81 42.57 57.04 42.36 57.04 42.82C57.04 42.92 57.01 43 56.94 43.05C56.94 43.08 56.97 43.11 57 43.15C56.89 43.09 56.65 42.96 56.65 42.92L56.68 42.89C56.68 42.79 55.99 42.63 55.86 42.61C55.86 42.63 55.83 42.63 55.78 42.63C55.7 42.63 55.58 42.61 55.5 42.61C55.5 42.69 55.09 42.61 55.01 42.74C54.91 42.87 54.86 42.89 54.78 42.89C54.7 42.89 54.65 42.86 54.52 42.84C54.52 43.48 54.12 43.64 54.06 43.65C54.06 43.65 54.07 43.65 54.08 43.65H54.06C54.04 43.65 54.03 43.65 54.03 43.63C54.03 43.6 54.06 43.55 54.06 43.5C54.06 43.45 53.83 43.37 53.85 43.37C53.59 43.37 53.44 43.8 53.4 43.87C53.44 43.92 53.63 44.09 53.73 44.11C53.63 44.49 53.6 44.8 53.19 44.8C53.19 44.77 53.01 44.62 52.93 44.62C52.85 44.62 52.85 44.72 52.85 44.8C52.93 44.8 52.95 44.83 52.95 44.83C52.95 44.96 52.07 45.32 52 45.39C51.69 45.39 51.43 45.52 51.43 45.82C51.43 45.87 51.46 45.92 51.51 45.92C51.51 46.05 51.41 45.97 51.41 46.15C51.41 46.18 51.44 46.2 51.44 46.2C51.44 46.25 51.21 46.53 51.13 46.56C51.1 46.51 51.1 46.48 51.1 46.43C51.1 46.38 51.13 46.33 51.13 46.28C51.1 46.28 51.08 46.28 51.08 46.23C50.85 46.23 50.54 46.54 50.54 46.61C50.54 46.89 50.82 46.92 50.82 47.1C50.82 47.43 50.59 47.48 50.38 47.51C50.38 47.48 50.35 47.46 50.3 47.46C50.22 47.46 50.07 47.54 50.07 47.66C50.1 47.71 50.2 47.94 50.22 47.94C50.19 48.32 49.78 48.09 49.78 48.4C49.78 48.5 49.98 48.6 50.17 48.73C50.12 49.04 50.12 49.47 49.73 49.78C49.58 49.88 49.58 49.98 49.58 50.16C49.58 50.21 49.61 50.26 49.61 50.31C49.61 50.62 49.04 51.15 49.04 51.43C49.04 51.74 48.94 52.07 48.94 52.37C48.94 52.96 49.25 53.62 49.25 53.9C49.25 54.26 49.58 54.36 49.84 55.13C49.71 55.18 49.53 55.33 49.53 55.44C49.53 55.55 49.56 55.62 49.68 55.62C49.83 55.59 50.12 55.21 50.12 55.24C50.76 55.34 51.07 55.9 52.21 55.9C53.35 55.9 54.09 55.54 54.09 55.54C54.14 55.54 54.24 55.57 54.24 55.62L54.03 55.93C54.03 56.08 54.03 56.26 54.21 56.26C54.39 56.26 54.11 55.39 54.96 55.39C54.96 55.47 54.96 55.62 54.86 55.62C54.86 55.77 54.89 55.9 55.01 55.98C55.01 55.9 55.09 55.9 55.16 55.88V55.68C55.34 55.68 55.24 55.32 55.57 55.32C55.75 55.32 55.85 55.55 56.01 55.55C56.05 55.55 56.48 55.29 56.74 55.16C56.81 55.25 56.92 55.25 57.09 55.25C57.13 55.25 57.16 55.24 57.19 55.23C57.32 55.43 57.29 55.78 57.58 55.78C57.71 55.78 58.35 55.7 58.35 55.35C58.35 55.15 57.76 55.25 57.68 54.99C57.91 54.99 58.12 54.86 58.19 54.86C58.26 54.86 58.4 54.89 58.47 54.91C58.47 54.89 59.11 54.17 59.11 54.22C59.16 54.22 59.19 54.25 59.24 54.27C59.24 54.17 59.37 54.19 59.45 54.17C59.53 54.32 59.58 54.35 59.66 54.35C59.97 54.35 59.97 53.89 60.02 53.92C60.02 53.77 59.97 53.54 59.94 53.38C60.09 53.38 60.22 52.74 60.46 52.74C60.54 52.74 60.59 52.87 60.79 52.87C61.02 52.87 61.18 52.64 61.18 52.46C61.18 52.38 61.13 52.31 61.08 52.31C60.95 52.31 60.9 52.46 60.82 52.46C60.79 52.46 60.74 52.43 60.74 52.43C60.74 52.18 61.56 52 61.56 51.82C61.56 51.33 61.28 51.28 61.28 51.28C61.28 51.25 61.31 51.25 61.31 51.23C61.31 51.18 61.03 50.87 61.03 50.44C61.03 50.21 61.54 50.24 61.54 49.9C61.49 49.87 61.28 49.82 61.31 49.8C61.28 49.85 61.23 49.85 61.18 49.85C61.1 49.85 61 49.8 61 49.7C61 49.56 61.14 49.51 61.27 49.45C61.24 49.47 61.22 49.49 61.22 49.51C61.22 49.77 61.66 49.87 61.89 49.87C62.15 49.87 62.76 49.82 62.77 49.57C62.82 49.53 62.85 49.48 62.85 49.41C62.85 49.18 62.8 49.03 62.59 49.03C62.54 49.03 62.46 49.06 62.44 49.06C62.32 49.08 62.27 49.17 62.24 49.27C62.23 49.27 62.22 49.27 62.2 49.27C61.91 49.27 61.57 49.34 61.37 49.41C61.43 49.37 61.48 49.33 61.48 49.26C61.48 49.11 61.02 49.08 60.89 49.03C60.79 48.98 60.86 48.8 60.74 48.8C60.74 48.32 61.54 48.44 61.54 48.11C61.39 48.14 61.18 48.16 61 48.16C60.75 48.16 60.55 48.1 60.5 47.9C61.17 47.83 61.88 47.23 61.88 47.11C61.96 47.08 62.09 47.06 62.16 47.06C62.23 47.06 62.34 47.09 62.37 47.16C62.7 47.01 62.68 46.93 62.68 46.57C62.53 46.6 62.32 46.72 62.16 46.72C62.03 46.72 61.62 46.08 61.54 46.08C61.28 46.08 60.43 45.9 60.43 45.49C60.33 45.57 60.25 45.67 60.1 45.67C59.97 45.65 59.97 45.54 59.89 45.54C59.86 45.54 59.84 45.57 59.76 45.62C59.65 45.69 59.56 45.76 59.47 45.82C59.43 45.71 59.36 45.61 59.19 45.61C59.16 45.61 59.11 45.64 59.11 45.69C58.65 45.69 58.93 45.59 58.47 45.28C58.47 45.13 58.24 45.13 58.11 45.13C58.01 45.13 57.9 45.16 57.8 45.16C57.64 45.16 57.59 45.11 57.59 44.8C57.59 44.65 57.67 44.6 57.67 44.57C57.67 44.52 57.62 44.49 57.62 44.42C57.66 44.42 57.69 44.34 57.72 44.23C57.74 44.23 57.77 44.22 57.8 44.22C58.01 44.22 57.93 44.42 58.06 44.42C58.06 44.5 58.03 44.55 58.03 44.6C58.03 44.65 58.06 44.68 58.16 44.7C58.16 44.65 58.31 44.6 58.42 44.6C58.7 44.6 58.57 44.88 58.91 44.88C59.01 44.88 58.88 44.75 59.3 44.75C59.51 44.8 59.79 44.9 59.87 44.9C60.33 44.9 60.18 44.49 60.64 44.49C60.69 44.49 60.74 44.52 60.79 44.57C60.89 44.54 60.97 44.47 61.05 44.47C61 44.37 60.95 44.29 60.95 44.21C60.95 43.95 61.36 43.93 61.54 43.93C61.51 43.85 61.49 43.78 61.49 43.73C61.46 43.73 61.46 43.76 61.44 43.76C61.34 43.76 61.36 43.61 61.36 43.58C61.36 43.4 61.64 43.1 61.72 43.1H61.88C61.88 42.87 61.7 42.84 61.7 42.61C61.7 42.35 61.88 42.28 61.88 42.1C61.88 41.92 61.55 41.95 61.55 41.49C61.73 41.49 61.94 41.95 62.22 41.95C62.3 41.95 62.37 41.92 62.37 41.87C62.6 41.9 62.68 42.1 62.76 42.1C62.81 42.1 62.86 42 62.89 41.92H63.43C63.53 41.33 64.23 41.51 64.23 41C64.23 40.97 64.15 40.92 64.15 40.9C64.18 40.67 64.33 40.29 64.33 40.31C64.33 40.21 64.17 40.23 64.17 40.08C64.17 40.03 64.2 39.98 64.2 39.93C64.2 39.85 64.02 39.75 63.97 39.7V39.27C63.38 39.27 63.56 38.89 63.17 38.89C63.17 38.94 63.14 38.97 63.12 38.97C63.02 38.97 62.81 38.84 62.68 38.84C62.63 38.84 62.58 38.87 62.58 38.94C62.4 38.91 62.22 38.84 62.04 38.84C61.99 39.07 61.86 39.05 61.65 39.05H61.67ZM61.29 38.62C61.4 38.62 61.46 38.62 61.46 38.59C61.46 38.59 61.43 38.56 61.38 38.56C61.35 38.56 61.3 38.59 61.3 38.62H61.29ZM40.03 19.13C39.97 19.19 39.93 19.2 39.86 19.23L39.78 19.4C39.78 19.4 39.83 19.42 39.81 19.47C39.91 19.52 40.12 19.34 40.19 19.38C40.22 19.18 40.19 19.2 40.04 19.12L40.03 19.13ZM64.99 19.71C64.99 19.71 65.02 19.65 65.02 19.63C64.94 19.66 64.96 19.63 64.91 19.69C64.94 19.69 64.97 19.72 64.99 19.72V19.71ZM64.68 19.48C64.62 19.4 64.57 19.32 64.49 19.32C64.43 19.32 64.41 19.35 64.35 19.4C64.49 19.46 64.52 19.48 64.68 19.48ZM55.76 42.01C55.73 41.82 55.68 41.74 55.51 41.68C55.54 41.87 55.59 41.95 55.76 42.01ZM58.85 29.9C58.91 29.9 58.91 29.87 58.91 29.82C58.91 29.71 58.75 29.74 58.69 29.74C58.77 29.85 58.83 29.91 58.86 29.91L58.85 29.9ZM54.69 29C54.5 29 54.5 29.06 54.5 29.22C54.64 29.22 54.75 29.25 54.75 29.05C54.75 28.99 54.72 28.99 54.69 28.99V29ZM54.84 28.71C54.9 28.74 54.95 28.74 55.03 28.76C55.06 28.71 55.11 28.62 55.11 28.54C55.11 28.51 54.97 28.46 54.95 28.46C54.89 28.46 54.87 28.63 54.84 28.71ZM50.53 44.14C50.53 44.14 50.59 44.16 50.61 44.16C50.72 44.16 50.75 44.04 50.75 43.89C50.75 43.69 50.69 43.45 50.69 43.38C50.69 43.31 50.69 43.26 50.66 43.26C50.58 43.26 50.52 43.95 50.52 44.14H50.53ZM51.42 43.32C51.55 43.32 51.57 43.29 51.57 43.37C51.72 43.34 51.89 43.37 51.89 43.21C51.89 42.79 51.17 42.77 51.04 42.71C51.02 42.71 50.94 42.68 50.89 42.68C50.79 42.68 50.87 42.81 50.81 42.81C50.79 42.81 50.84 42.76 50.66 42.76C50.66 42.76 50.6533 42.77 50.64 42.79C50.64 42.84 50.69 43.08 50.69 43.1C50.64 43.1 50.64 43.13 50.64 43.2C50.74 43.2 50.76 43.17 50.76 43.12C50.76 43.07 50.73 43.02 50.73 42.94C50.83 42.94 50.8 42.97 50.8 42.91C50.8 42.91 50.78 42.88 50.78 42.83C51.18 43.01 51.4 43.3 51.4 43.3L51.42 43.32ZM64.57 19.54C64.57 19.54 64.65 19.6 64.71 19.6C64.71 19.54 64.66 19.49 64.63 19.49C64.6 19.49 64.57 19.52 64.57 19.55V19.54ZM63.48 28.81C63.41 28.91 63.33 29.01 63.33 29.14C63.35 29.39 63.58 29.67 63.83 29.67C64.28 29.67 64.35 29.34 64.35 29.06C64.35 28.75 64.08 28.65 63.75 28.65C63.75 28.73 63.55 28.73 63.48 28.8V28.81ZM53.08 5.45C52.97 5.67 53.02 5.82 53.2 5.9C53.33 5.81 53.47 5.79 53.57 5.65C53.51 5.53 53.52 5.38 53.38 5.28C53.25 5.37 53.15 5.32 53.09 5.44L53.08 5.45ZM53.21 2.22C53.14 2.18 53.04 2.38 53.03 2.41L53.23 2.51C53.23 2.51 53.3 2.42 53.31 2.4C53.33 2.35 53.31 2.28 53.21 2.23V2.22ZM51.29 6.8C51.39 6.72 51.45 6.66 51.47 6.61C51.51 6.54 51.47 6.36 51.34 6.3C51.22 6.24 51.07 6.3 51.02 6.27C50.9 6.58 51.04 6.68 51.28 6.8H51.29ZM54.78 19.19C54.78 19.19 55.12 19.57 55.01 19.8C55.05 19.82 55.11 19.82 55.13 19.83C55.15 19.84 55.16 19.87 55.14 19.92C55.28 19.96 55.36 19.92 55.38 19.87C55.52 19.58 54.8 19.03 54.8 19.03C54.76 19.01 54.73 19.05 54.72 19.08C54.75 19.07 54.78 19.08 54.8 19.09C54.82 19.09 54.8 19.14 54.78 19.19ZM55.53 10.1C55.44 10.3 55.72 10.44 55.9 10.54C55.94 10.44 56.07 10.48 56.15 10.49C56.23 10.32 56.22 10.28 55.94 10.14C55.76 10.04 55.57 10.01 55.53 10.11V10.1ZM49.77 16.46C49.83 16.34 49.7 16.3 49.62 16.27C49.55 16.23 49.32 16.25 49.29 16.32C49.26 16.37 49.56 16.51 49.61 16.54C49.64 16.55 49.75 16.51 49.77 16.46ZM54.53 20.96C54.53 20.96 54.6 20.93 54.62 20.91C54.55 20.87 54.48 20.63 54.41 20.59C54.38 20.79 54.36 20.87 54.54 20.96H54.53ZM54.06 8.62C54.01 8.72 54.11 8.77 54.26 8.84C54.31 8.68 54.33 8.63 54.26 8.59C54.21 8.57 54.11 8.52 54.06 8.62ZM62.2 0.25C62.2 0.31 62.17 0.3 62.21 0.35C62.43 0.27 62.5 0.25 62.66 0.0500002L62.56 1.1252e-08C62.46 0.14 62.22 0.26 62.19 0.25H62.2ZM55.63 3.57C55.63 3.57 55.64 3.61 55.69 3.63C55.77 3.58 55.94 3.63 55.98 3.53C55.9467 3.51667 55.9367 3.49333 55.95 3.46C55.85 3.47 55.65 3.5 55.62 3.57H55.63ZM51.33 4.63C51.48 4.64 51.6 4.7 51.66 4.58C51.5 4.53 51.39 4.51 51.33 4.63ZM51.18 3.14C51.12 3.28 51.02 3.5 51.2 3.59C51.64 3.82 51.8 3.08 51.96 3.16C52.02 3.02 52.04 2.91 51.9 2.8C51.9 2.8 51.9 2.78 51.9 2.74C51.7 2.63 51.26 2.96 51.19 3.13L51.18 3.14ZM52.46 2.3C52.5 2.23 52.5 2.16 52.4 2.12C52.35 2.22 52.32 2.29 52.4 2.39C52.44 2.38 52.46 2.33 52.47 2.3H52.46ZM50.41 3.56C50.34 3.52 50.26 3.49 50.23 3.56C50.17 3.68 50.22 3.77 50.29 3.81C50.54 3.93 50.55 3.84 50.62 3.7C50.58 3.65 50.48 3.6 50.41 3.57V3.56ZM52.97 9.57C52.97 9.57 52.92 9.61 52.91 9.63C52.98 9.67 53.02 9.71 53.07 9.74C53.17 9.79 53.27 9.65 53.31 9.55C53.25 9.49 53.21 9.44 53.16 9.42C53.09 9.38 53.01 9.41 52.9 9.51C52.95 9.53 52.98 9.55 52.96 9.57H52.97ZM52.91 3.81L53.01 3.86C53.17 3.66 53.39 3.65 53.56 3.48C53.53 3.47 53.51 3.46 53.53 3.41C53.16 3.23 53.1 3.6 52.91 3.81ZM49.65 38.58C49.29 38.58 49.29 38.8 49.29 38.99C49.43 39.07 49.48 39.18 49.62 39.18C49.79 39.18 49.92 39.01 49.92 38.9C49.92 38.85 49.89 38.79 49.86 38.74C49.8 38.63 49.72 38.57 49.64 38.57L49.65 38.58ZM50.21 14.28C50.25 14.21 50.29 14.17 50.31 14.14C50.36 14.04 50.32 13.99 50.15 13.91C50.09 14.1 50.02 14.18 50.22 14.28H50.21ZM69.41 32.05C69.46 32.05 69.57 32.02 69.63 32.02C69.6 31.96 69.57 31.91 69.57 31.85C69.57 31.85 69.58 31.84 69.6 31.82C69.6 31.68 69.49 31.6 69.3 31.6C69.27 31.63 69.22 31.74 69.22 31.82C69.22 31.96 69.33 32.04 69.41 32.04V32.05ZM31.39 35.15C31.39 34.61 31.22 34.32 31.11 34.32C30.86 34.32 30.84 34.53 30.84 34.72C30.84 34.96 31.11 35.28 31.11 35.34C31.28 35.29 31.39 35.39 31.39 35.15ZM33.1 35.17C33.1 34.94 32.98 34.77 32.63 34.77C32.43 34.77 32.31 34.9 32.31 35.02C32.38 35.27 32.53 35.45 32.78 35.45C32.95 35.45 33.1 35.3 33.1 35.17ZM64.79 59.59C64.79 59.59 64.76 59.56 64.73 59.56C64.68 59.56 64.59 59.67 64.57 59.67C64.57 59.67 64.79 59.67 64.79 59.59ZM59.28 8.62C59.28 8.62 59.4 8.31 59.34 8.19C59.32 8.3 59.21 8.59 59.28 8.62ZM57.23 12.1C57.19 12.17 57.22 12.24 57.24 12.25C57.55 12.39 57.04 13 57.34 13.15C57.54 13.15 57.63 13.03 57.71 12.87C57.82 12.64 58.32 12.87 58.44 12.65C58.51 12.51 58.21 12.29 58 12.19C57.76 12.08 57.31 11.92 57.22 12.11L57.23 12.1ZM57.44 7.03C57.44 7.03 57.58 7 57.61 6.99C57.58 6.98 57.49 6.93 57.44 7.03ZM60.28 8.39C60.28 8.39 60.34 8.33 60.35 8.3C60.25 8.25 60.25 8.31 60.28 8.39ZM60.32 8.05C60.32 8.05 60.31 7.95 60.28 7.88C60.24 7.95 60.28 8 60.32 8.05ZM55.77 19.14C55.71 19.26 55.73 19.49 55.95 19.59C56.1 19.54 56.21 19.56 56.27 19.44C56.37 19.24 56.29 19.02 56.14 18.95C55.97 18.87 55.83 19.02 55.77 19.14ZM60.57 1.09C60.57 1.09 60.5 1.36 60.5 1.48C60.54 1.41 60.66 1.1 60.61 1.07C60.61 1.07 60.59 1.06 60.57 1.08V1.09ZM61.8 1.59C61.8 1.59 61.75 1.69 61.74 1.71C61.77 1.72 61.92 1.52 61.93 1.5C61.94 1.48 61.92 1.46 61.92 1.46C61.87 1.43 61.84 1.51 61.8 1.58V1.59ZM60.41 2.19C60.41 2.19 60.36 2.35 60.44 2.39C60.4933 2.27667 60.4967 2.20667 60.45 2.18C60.45 2.18 60.43 2.17 60.41 2.19ZM52.98 13.94C52.98 13.86 53.03 13.79 53.03 13.71C52.77 13.71 53 13.99 52.69 13.99C52.64 13.99 52.59 13.97 52.51 13.97C52.46 13.97 52.41 14.1 52.33 14.1C52.17 14.1 52.1 13.75 52.1 13.75C52.02 13.75 52.1 14.28 51.53 14.28C51.43 14.31 51.4 14.46 51.32 14.46C51.24 14.46 51.27 14.33 51.16 14.28C51.19 14.36 51.21 14.46 51.21 14.51C51.21 14.64 50.85 14.76 50.82 14.79C50.64 14.76 50.59 14.36 50.43 14.36C50.43 14.36 50.42 14.37 50.4 14.39C50.4 14.52 50.71 14.77 50.84 14.9L50.65 15.1C50.54 15.02 50.5 14.86 50.41 14.83C50.41 14.83 50.3967 14.8333 50.37 14.84C50.37 14.84 50.35 14.94 50.38 14.99C50.43 15.03 50.52 15.1 50.57 15.18L50.49 15.26C50.49 15.26 50.46 15.29 50.44 15.29C50.31 15.29 50.26 15.16 50.13 15.16C50.13 15.16 50.35 15.36 50.43 15.54L50.15 15.41C50.04 15.64 50.38 15.58 50.25 15.85C50.19 15.96 50.05 15.9 49.97 16C50.06 16.06 50.09 16.15 50.07 16.24C49.99 16.26 49.88 16.26 49.74 16.27C49.86 16.27 49.96 16.27 50.05 16.29C49.97 16.45 49.83 16.21 49.76 16.35C49.74 16.4 49.75 16.43 49.77 16.44C49.79 16.45 49.83 16.44 49.87 16.46C50.01 16.53 49.98 16.6 49.91 16.73C49.87 16.82 49.68 16.73 49.61 16.87C49.6 16.89 49.61 16.93 49.66 16.95C49.78 17.01 49.89 16.89 50 16.91L49.97 17.37C49.89 17.47 49.76 17.55 49.64 17.69C49.81 17.69 49.99 17.57 50.13 17.58C50.13 17.59 50.16 17.7 50.18 17.83C50.03 17.71 49.92 17.69 49.65 17.69C49.65 18.5 50.46 18.58 50.61 19.01C50.61 19.06 50.71 19.01 50.71 19.06C50.71 19.06 50.71 19.09 50.68 19.11C50.84 19.16 50.86 19.24 50.97 19.24C51.28 19.24 51.41 19.11 51.47 18.95C51.5 19.11 51.38 19.36 51.43 19.39C51.45 19.4 51.49 19.39 51.5 19.37C51.5 19.31 51.51 19.23 51.53 19.19C51.66 18.94 51.89 18.99 52.17 19.13C52.24 19.16 52.28 19.21 52.35 19.24C52.5 19.06 52.78 18.85 52.94 18.93C53.01 18.96 53.07 19.08 53.14 19.11C53.19 19.13 53.2 19.11 53.21 19.09C53.26 19 53.19 18.93 53.2 18.85C53.23 18.85 53.25 18.83 53.27 18.81C53.35 18.84 53.4 18.91 53.48 18.96C53.51 18.89 53.53 18.81 53.55 18.74C53.59 18.76 53.63 18.78 53.68 18.8C53.68 18.7 53.64 18.66 53.62 18.62C53.65 18.58 53.7 18.55 53.77 18.53C53.85 18.51 53.95 18.48 54.03 18.4L54.26 18.48C54.26 18.48 54.29 18.46 54.29 18.43C54.29 18.38 54.24 18.33 54.24 18.25C54.24 18.12 54.63 17.92 54.71 17.92C55.12 17.92 55.7 18.58 55.75 18.58C55.75 18.58 55.88 18.66 55.93 18.66C55.96 18.66 55.98 18.66 55.98 18.63C55.98 18.6 54.76 17.92 54.76 17.67C54.76 17.4 55.04 17.18 55.14 17.11C55.31 17.16 55.42 17.06 55.48 16.94C55.53 16.83 55.46 16.67 55.34 16.59C55.34 16.59 55.36 16.58 55.36 16.57C55.28 16.47 55.15 16.52 55.13 16.47C55.13 16.32 55.16 16.19 55.23 16.09C55.18 15.99 55.02 15.89 55.02 15.71C55.1 15.61 55.25 15.58 55.36 15.53C55.31 15.56 55.26 15.56 55.2 15.56C54.9 15.56 54.51 14.81 54.38 14.58C54.39 14.58 54.4 14.59 54.41 14.6C54.62 14.7 54.85 14.58 54.94 14.4C55.03 14.22 54.97 13.99 54.76 13.89C54.53 13.78 54.31 13.82 54.18 14.07C54.12 14.19 54.14 14.31 54.19 14.41C54.17 14.39 54.15 14.37 54.12 14.37C54.07 14.37 53.99 14.4 53.96 14.4C53.8 14.4 53.91 14.15 53.73 14.15C53.65 14.15 53.6 14.18 53.52 14.18C53.39 14.18 53.26 14.05 53.26 13.93C53.21 13.98 53.18 14.08 53.1 14.08C53.02 14.08 52.97 14.03 52.97 13.98L52.98 13.94ZM67.05 16.54C67.05 16.54 67.11 16.54 67.12 16.51L66.95 16.43C66.98 16.5 67.05 16.54 67.05 16.54ZM67.01 15.72C67.01 15.72 66.97 15.67 66.95 15.66C66.88 15.62 66.81 15.62 66.73 15.67C66.83 15.72 66.89 15.78 67.01 15.72ZM66.88 16.4C66.79 16.39 66.71 16.32 66.61 16.33C66.7 16.34 66.8 16.39 66.87 16.43V16.4H66.88ZM63.78 9.74C63.77 9.89 63.86 10.02 63.98 10.08C64.03 10.1 64.04 10.08 64.07 10.03C64.14 9.88 64.02 9.76 63.87 9.69C63.84 9.68 63.81 9.69 63.78 9.74ZM41.07 49.05C41.07 48.97 41.1 48.9 41.1 48.82C41.1 48.77 41.1 48.69 41.02 48.69C40.94 48.69 40.87 49 40.69 49.07C40.36 49.07 40.36 48.71 40.23 48.71C40.05 48.71 40.18 49.02 40.02 49.02C39.97 48.99 39.92 48.99 39.87 48.99C39.69 48.99 39.51 49.07 39.38 49.12C39.33 49.04 39.25 48.97 39.12 48.97C38.89 48.97 38.99 49.56 38.74 49.56C38.66 49.56 38.64 49.41 38.54 49.38C38.49 49.38 38.46 49.43 38.41 49.48C38.46 49.56 38.51 49.66 38.51 49.76C38.51 49.86 38.28 50.27 38.1 50.27C37.95 50.27 37.84 50.17 37.74 50.17C37.71 50.17 37.69 50.17 37.69 50.19C37.69 50.4 37.97 50.27 37.97 50.52C37.97 50.62 37.87 50.65 37.79 50.67C37.79 50.77 37.92 50.85 37.92 50.93L37.77 51.39H37.59C37.59 51.44 37.56 51.54 37.56 51.57C37.56 51.65 37.92 52.21 37.92 52.21C37.92 52.44 37.51 52.41 37.51 52.59C37.64 52.59 37.82 52.54 37.94 52.49C38.07 52.57 38.12 52.69 38.17 52.85C38.17 52.98 38.02 52.98 38.02 53.1C38.02 53.13 38.05 53.18 38.1 53.18C38.13 53.18 38.15 53.13 38.18 53.13C38.44 53.13 38.26 53.49 38.51 53.49C38.54 53.49 38.59 53.49 38.61 53.46C38.71 53.46 38.79 53.54 38.79 53.61C38.79 53.68 38.76 53.74 38.71 53.82C38.71 53.85 38.71 53.9 38.76 53.9C38.86 53.9 38.94 53.8 38.99 53.8C39.07 53.8 39.14 53.85 39.14 53.93C39.14 53.98 39.06 54.03 39.06 54.08C39.19 54.08 39.03 54.26 39.29 54.26C39.37 54.11 39.26 54.05 39.65 54.05C39.98 54.05 39.78 54.41 40.03 54.41C40.28 54.41 40.13 54.18 40.29 54.18C40.39 54.18 40.5 54.23 40.6 54.23C40.65 54.23 40.68 54.2 40.73 54.2C40.86 54.2 40.81 54.46 40.99 54.46C41.02 54.43 41.04 54.41 41.04 54.36C41.04 54.33 41.01 54.31 41.01 54.28C41.01 54.2 41.27 54.03 41.37 54.03C41.42 54.03 41.47 54.16 41.55 54.16C41.73 54.16 41.55 53.91 41.78 53.91C41.86 53.91 41.91 54.06 42.09 54.06C42.09 53.96 41.99 53.88 41.99 53.78C41.99 53.63 42.17 53.45 42.3 53.4C42.35 53.45 42.43 53.5 42.45 53.5C42.5 53.5 42.55 53.47 42.58 53.45C42.55 53.35 42.43 53.3 42.43 53.19C42.51 53.09 42.53 52.96 42.61 52.86L42.94 53.04C42.94 53.04 43.04 52.99 43.04 52.94C42.96 52.84 42.73 52.79 42.73 52.68C42.73 52.53 43.01 52.19 43.22 52.09C43.12 51.86 42.96 52.04 42.96 51.53C42.99 51.53 43.04 51.45 43.11 51.45C43.24 51.45 43.06 51.81 43.39 51.81C43.42 51.81 43.62 51.81 43.62 51.58C43.62 51.45 43.47 51.35 43.42 51.35C43.39 51.35 43.34 51.38 43.29 51.38C43.26 51.33 43.16 51.25 43.06 51.25C43.03 51.25 42.98 51.28 42.96 51.28C42.88 51.1 42.78 51.05 42.78 50.79C42.86 50.71 43.09 50.59 43.11 50.46C43.03 50.46 42.98 50.49 42.88 50.49C42.7 50.49 42.5 50.41 42.42 49.98C42.55 49.9 42.7 49.78 42.7 49.6C42.7 49.6 42.69 49.59 42.67 49.57C42.52 49.57 42.36 49.85 42.26 49.88C42.05 49.83 41.93 49.7 41.9 49.52C41.95 49.44 42.05 49.32 42.08 49.24C42 49.19 41.93 49.16 41.85 49.16C41.75 49.16 41.64 49.19 41.59 49.26C41.36 49.21 41.05 49.29 41.05 49.06L41.07 49.05ZM59.22 60.81C59.22 60.81 59.19 60.76 59.16 60.76C59.11 60.76 59.05 60.79 59.02 60.79C59.1 60.82 59.16 60.82 59.21 60.82L59.22 60.81ZM58.9 2.27C58.94 2.2 58.79 2.12 58.79 2.06C58.8 1.97 58.78 1.78 58.69 1.7C58.7 1.92 58.74 2.09 58.82 2.25C58.85 2.26 58.89 2.29 58.91 2.26L58.9 2.27ZM58.29 26.74C58.43 26.48 58.29 26.25 58.06 26.07C58.02 26.03 58 26.02 57.96 25.99C57.75 25.9 57.41 26.11 57.32 26.28C57.24 25.93 56.67 25.93 56.58 25.93C56.5 25.93 56.45 25.95 56.42 26.03C56.42 26.44 57.15 26.52 57.15 26.54C57.2 26.54 57.23 26.51 57.26 26.5C57.25 26.71 57.35 26.93 57.55 27.02C57.78 27.13 58.14 27.05 58.3 26.74H58.29ZM61.46 12.8C61.46 12.8 61.5 12.73 61.42 12.69C61.4 12.74 61.38 12.76 61.46 12.8ZM64.11 5.51C63.97 5.47 63.67 5.48 63.56 5.51C63.66 5.56 64.02 5.58 64.11 5.51ZM61.9 13.14C61.78 13.02 61.68 12.91 61.52 12.8C61.61 12.93 61.76 13.07 61.9 13.14ZM49.3 17.78C49.3 17.78 49.51 17.73 49.59 17.68C49.57 17.67 49.37 17.69 49.32 17.73H49.28L49.29 17.78H49.3ZM50.68 14.03C50.7 13.92 50.62 13.85 50.58 13.74C50.58 13.74 50.5667 13.7433 50.54 13.75C50.54 13.75 50.55 13.85 50.58 13.86C50.58 13.92 50.62 14.03 50.64 14.04C50.66 14.05 50.68 14.03 50.68 14.03ZM45.3 50.62C45.22 50.62 44.92 51.17 44.87 51.41C45.1 51.41 45.55 51 45.55 50.73C45.45 50.7 45.35 50.62 45.3 50.62ZM47.59 18.8C47.65 18.74 47.62 18.8 47.65 18.69C47.59 18.75 47.62 18.69 47.59 18.8ZM53.93 23.88C53.96 23.96 53.98 24.05 53.98 24.13C54.12 24.07 54.15 23.91 54.42 23.91C54.39 23.77 54.39 23.58 54.26 23.55C54.18 23.55 53.93 23.77 53.93 23.88Z" fill="white"/>
</svg>
